<svg id="Layer_1" data-name="Layer 1" xmlns="http://www.w3.org/2000/svg" viewBox="0 0 19 21.94"><defs><style>.cls-1{opacity:0.9;}.cls-2{fill:#fbac3a;}.cls-3{fill:#fff;}</style></defs><title>antenne_icon</title><g class="cls-1"><polygon class="cls-2" points="2 6.64 2 15.3 9.5 19.63 17 15.3 17 6.64 10.34 2.79 9.5 2.31 8.79 2.72 2 6.64"/><path class="cls-3" d="M511.08,627l.84.48,6.66,3.85V640l-7.5,4.33-7.5-4.33v-8.66l6.79-3.92.71-.41m0-2.31-1,.58-.71.41-6.79,3.92-1,.58v11l1,.58,7.5,4.33,1,.58,1-.58,7.5-4.33,1-.58v-11l-1-.58-6.66-3.85-.84-.48-1-.58Z" transform="translate(-501.58 -624.73)"/></g></svg>