<svg id="Layer_1" data-name="Layer 1" xmlns="http://www.w3.org/2000/svg" viewBox="0 0 178.42 148.11"><defs><style>.cls-1,.cls-2{fill:#fff;}.cls-1{opacity:0.4;}</style></defs><title>feedback</title><polygon class="cls-1" points="131.34 118.98 125.42 122.4 120.38 119.49 99.85 107.64 76.58 148.11 0 148.11 0 146.11 75.42 146.11 98.12 106.64 72.42 91.8 72.42 30.6 125.42 0 178.42 30.6 178.42 91.8 131.34 118.98"/><path class="cls-2" d="M488.45,508.41a1,1,0,0,0-.79,1.73c1,1.18,1,3.93-.07,5.56-1.44,2.23-1.75,6,.07,8.13a1,1,0,1,0,1.59-1.37c-1-1.2-1-3.93.11-5.62,1.39-2.15,1.69-6-.11-8.07a1,1,0,0,0-.79-.36Zm4.69,0a1,1,0,0,0-.79,1.73c1,1.18,1,3.93-.07,5.56-1.44,2.22-1.75,6,.07,8.13a1,1,0,1,0,1.59-1.37c-1-1.2-1-3.93.11-5.62,1.39-2.15,1.69-6-.11-8.07a1,1,0,0,0-.79-.36ZM482.8,511H464.93a5.31,5.31,0,0,0-5.3,5.3v31.77a5.31,5.31,0,0,0,5.3,5.3h7.51a1,1,0,0,0,0-2.1h-7.51a3.21,3.21,0,0,1-3.2-3.2V516.34a3.21,3.21,0,0,1,3.2-3.2H482.8a1,1,0,1,0,0-2.1Zm0,5.41H466.86a1,1,0,0,0-1,1v29.25a1,1,0,0,0,1,1h3.51a1,1,0,1,0,0-2.1h-2.47V518.55H482.8a1,1,0,0,0,0-2.1ZM479.26,522h-7.35a1,1,0,0,0,0,2.1h7.35a1,1,0,1,0,0-2.1Zm19.25,5.4H483.09a1,1,0,0,0-1,1V539a8.76,8.76,0,1,0,17.52,0v-.38h3.77a1,1,0,0,0,1-1v-6.83a1,1,0,0,0-1-1h-3.77v-1.26a1,1,0,0,0-1-1ZM490.8,545.7a6.67,6.67,0,0,1-6.66-6.66v-9.52h13.32V539a6.67,6.67,0,0,1-6.66,6.66Zm8.76-9.14v-4.73h2.73v4.73Zm-24.16-9.14h-3.48a1,1,0,0,0,0,2.1h3.48a1,1,0,1,0,0-2.1Zm1.34,5.4h-4.82a1,1,0,0,0,0,2.1h4.82a1,1,0,1,0,0-2.1Zm-1.91,12.88h-.17a1,1,0,1,0,0,2.1h.17a1,1,0,1,0,0-2.1Zm6.35,0h-2a1,1,0,0,0,0,2.1h2a1,1,0,0,0,0-2.1Zm22.16,5.61H478.26a1,1,0,0,0,0,2.1h25.07a1,1,0,1,0,0-2.1Z" transform="translate(-356.58 -469.71)"/></svg>