<svg id="Layer_1" data-name="Layer 1" xmlns="http://www.w3.org/2000/svg" viewBox="0 0 178.42 148.11"><defs><style>.cls-1{fill:#fff;opacity:0.4;}.cls-2{fill:none;stroke:#fff;stroke-miterlimit:10;stroke-width:2px;}</style></defs><title>immobilien</title><polygon class="cls-1" points="131.34 29.14 125.42 25.71 120.38 28.62 99.85 40.47 76.58 0 0 0 0 2 75.42 2 98.12 41.47 72.42 56.31 72.42 117.51 125.42 148.11 178.42 117.51 178.42 56.31 131.34 29.14"/><path class="cls-2" d="M298.37,425.15h9.72v-9.93h5.84v9.93h9.72V380.67H298.37Zm14.41-39.24h5.84v5.84h-5.84Zm0,9.39h5.84v5.84h-5.84Zm0,9.38h5.84v5.84h-5.84Zm-9.39-18.77h5.84v5.84h-5.84Zm0,9.39h5.84v5.84h-5.84Zm0,9.38h5.84v5.84h-5.84Z" transform="translate(-185.58 -316)"/><path class="cls-2" d="M325.9,384.66v31.45h3.75v9h8.84V384.66Zm8,27.18h-5.32v-5.32h5.32v5.32Zm0-8.54h-5.32V398h5.32v5.32Zm0-8.54h-5.32v-5.32h5.32v5.32Z" transform="translate(-185.58 -316)"/><path class="cls-2" d="M283.5,425.15h8.84v-9h3.75V384.66H283.5Zm4.57-35.72h5.32v5.32h-5.32Zm0,8.54h5.32v5.32h-5.32Zm0,8.54h5.32v5.32h-5.32Z" transform="translate(-185.58 -316)"/></svg>