<svg id="Layer_1" data-name="Layer 1" xmlns="http://www.w3.org/2000/svg" viewBox="0 0 178.42 148.11"><defs><style>.cls-1,.cls-3{fill:#fff;}.cls-1{opacity:0.4;}.cls-2{fill:none;stroke:#fff;stroke-miterlimit:10;stroke-width:2px;}</style></defs><title>investieren</title><polygon class="cls-1" points="47.08 29.14 53 25.71 58.03 28.62 78.56 40.47 101.84 0 178.42 0 178.42 2 103 2 80.3 41.47 106 56.31 106 117.51 53 148.11 0 117.51 0 56.31 47.08 29.14"/><path class="cls-2" d="M396,561.57h-5.51a1.18,1.18,0,0,0-1.18,1.18v14.66a1.18,1.18,0,0,0,1.18,1.18H396a1.18,1.18,0,0,0,1.18-1.18V562.75A1.17,1.17,0,0,0,396,561.57Z" transform="translate(-357 -470)"/><path class="cls-2" d="M407.18,555h-5.51a1.18,1.18,0,0,0-1.18,1.18V577.4a1.18,1.18,0,0,0,1.18,1.18h5.51a1.18,1.18,0,0,0,1.18-1.18V556.16A1.18,1.18,0,0,0,407.18,555Z" transform="translate(-357 -470)"/><path class="cls-2" d="M419.52,558.49v-9.82h3.82a.9.9,0,0,0,.76-1.37l-7.76-12.46a.9.9,0,0,0-1.53,0L407,547.3a.9.9,0,0,0,.76,1.37h3.82v28.74a1.18,1.18,0,0,0,1.18,1.18h5.51a1.18,1.18,0,0,0,1.18-1.18,14.32,14.32,0,0,1,0-18.93Z" transform="translate(-357 -470)"/><path class="cls-2" d="M430.36,556.51A11.45,11.45,0,1,0,441.81,568,11.45,11.45,0,0,0,430.36,556.51Z" transform="translate(-357 -470)"/><path class="cls-2" d="M384.89,569.53h-5.51a1.18,1.18,0,0,0-1.18,1.18v6.7a1.18,1.18,0,0,0,1.18,1.18h5.51a1.18,1.18,0,0,0,1.18-1.18v-6.7A1.17,1.17,0,0,0,384.89,569.53Z" transform="translate(-357 -470)"/><path class="cls-3" d="M429.66,576.82v-2.05a7.08,7.08,0,0,1-3.44-.9l.54-1.36a6.47,6.47,0,0,0,3.24.87c1.6,0,2.68-.83,2.68-2s-.88-1.81-2.54-2.42c-2.29-.81-3.71-1.75-3.71-3.52s1.33-3,3.4-3.27v-2.05h1.4v2a6.49,6.49,0,0,1,2.92.71l-.56,1.34a5.87,5.87,0,0,0-2.83-.69c-1.73,0-2.38.94-2.38,1.75,0,1.06.83,1.59,2.79,2.32,2.32.85,3.49,1.91,3.49,3.72,0,1.61-1.24,3.11-3.55,3.46v2.11Z" transform="translate(-357 -470)"/></svg>