<svg id="Layer_1" data-name="Layer 1" xmlns="http://www.w3.org/2000/svg" viewBox="0 0 147 122.4"><defs><style>.cls-1,.cls-2{fill:#fff;}.cls-1{opacity:0.4;}</style></defs><title>rueckzahlung</title><polygon class="cls-1" points="99.92 3.42 94 0 88.97 2.91 41 30.6 41 60.2 0 60.2 0 62.2 41 62.2 41 91.8 94 122.4 147 91.8 147 30.6 99.92 3.42"/><path class="cls-2" d="M452.35,566.41h-7.84V548.05h7.84Zm-6-1.82h4.19V549.88h-4.19Z" transform="translate(-372 -482.71)"/><path class="cls-2" d="M471.4,565.62l-11.67-3.28-6.76.76V548l11.21-1.74,12.09,3v4.53l-.89.26-.25-.05L468,552.27l-.15.6,7.53,1.83,10.8-3,1.32,5Zm-11.52-5.13,11.29,3.17,14.19-7.82-.49-1.87-9.48,2.61-9.76-2.38,1-4.14,7.8,1.9V550.7l-10.35-2.59-9.3,1.44v11.52Z" transform="translate(-372 -482.71)"/><path class="cls-2" d="M467.53,545.12a11.85,11.85,0,1,1,11.85-11.85A11.87,11.87,0,0,1,467.53,545.12Zm0-21.89a10,10,0,1,0,10,10A10,10,0,0,0,467.53,523.24Z" transform="translate(-372 -482.71)"/><path class="cls-2" d="M466.84,541.61v-2.05a5.93,5.93,0,0,1-3.11-.9l.49-1.36a5.43,5.43,0,0,0,2.93.87c1.44,0,2.42-.83,2.42-2s-.79-1.81-2.3-2.42c-2.07-.81-3.35-1.75-3.35-3.52A3.33,3.33,0,0,1,467,527v-2.05h1.26v2a5.42,5.42,0,0,1,2.64.71l-.51,1.34a4.92,4.92,0,0,0-2.56-.69c-1.57,0-2.16.94-2.16,1.75,0,1.06.75,1.59,2.52,2.32,2.09.85,3.15,1.91,3.15,3.72a3.54,3.54,0,0,1-3.21,3.46v2.11Z" transform="translate(-372 -482.71)"/></svg>