<svg id="Layer_1" data-name="Layer 1" xmlns="http://www.w3.org/2000/svg" viewBox="0 0 147 122.4"><defs><style>.cls-1,.cls-2{fill:#fff;}.cls-1{opacity:0.4;}</style></defs><title>treuehaender</title><polygon class="cls-1" points="47.08 3.42 53 0 58.03 2.91 106 30.6 106 60.2 147 60.2 147 62.2 106 62.2 106 91.8 53 122.4 0 91.8 0 30.6 47.08 3.42"/><path class="cls-2" d="M443.79,521.41a3.59,3.59,0,0,1,3.58,3.58v35.57a3.59,3.59,0,0,1-3.58,3.58h-.13v1a1.28,1.28,0,0,1-1.28,1.28h-3.63a1.28,1.28,0,0,1-1.28-1.28v-1H414.14v1a1.28,1.28,0,0,1-1.28,1.28h-3.63a1.28,1.28,0,0,1-1.28-1.28v-1a3.59,3.59,0,0,1-3.33-3.57V525a3.59,3.59,0,0,1,3.58-3.58h35.57m-32.44,39h28.92a3.39,3.39,0,0,0,3.39-3.39V528.26a3.39,3.39,0,0,0-3.39-3.39H411.35a3.39,3.39,0,0,0-3.39,3.39v28.79a3.39,3.39,0,0,0,3.39,3.39m28.92-33a.83.83,0,0,1,.83.83v28.79a.83.83,0,0,1-.83.83H411.35a.83.83,0,0,1-.83-.83V528.26a.83.83,0,0,1,.83-.83h28.92m-21.68,20.79a5.5,5.5,0,1,0-5.5-5.5,5.51,5.51,0,0,0,5.5,5.5m18.22-8.34h.62a1.28,1.28,0,1,0,0-2.56h-.62a1.28,1.28,0,1,0,0,2.56m-4.35,0h.62a1.28,1.28,0,1,0,0-2.56h-.62a1.28,1.28,0,1,0,0,2.56m-4.35,0h.62a1.28,1.28,0,1,0,0-2.56h-.62a1.28,1.28,0,1,0,0,2.56m8.7,4.18h.62a1.28,1.28,0,1,0,0-2.56h-.62a1.28,1.28,0,1,0,0,2.56m-4.35,0h.62a1.28,1.28,0,1,0,0-2.56h-.62a1.28,1.28,0,1,0,0,2.56m-4.35,0h.62a1.28,1.28,0,1,0,0-2.56h-.62a1.28,1.28,0,1,0,0,2.56m8.7,4.18h.62a1.28,1.28,0,1,0,0-2.56h-.62a1.28,1.28,0,1,0,0,2.56m-4.35,0h.62a1.28,1.28,0,1,0,0-2.56h-.62a1.28,1.28,0,1,0,0,2.56m-4.35,0h.62a1.28,1.28,0,1,0,0-2.56h-.62a1.28,1.28,0,1,0,0,2.56m-9.52-8.47a2.94,2.94,0,1,1-2.94,2.94,2.95,2.95,0,0,1,2.94-2.94m25.2-20.36H408.21a5.59,5.59,0,0,0-5.58,5.58v35.57A5.61,5.61,0,0,0,406,565.7a3.28,3.28,0,0,0,3.23,2.72h3.63a3.29,3.29,0,0,0,3.12-2.26h19.66a3.29,3.29,0,0,0,3.12,2.26h3.63a3.29,3.29,0,0,0,3.2-2.56,5.59,5.59,0,0,0,3.79-5.29V525a5.59,5.59,0,0,0-5.58-5.58Z" transform="translate(-373 -482.71)"/></svg>