<svg id="Layer_1" data-name="Layer 1" xmlns="http://www.w3.org/2000/svg" viewBox="0 0 178.42 148.11"><defs><style>.cls-1{fill:#fff;opacity:0.4;}.cls-2{fill:none;stroke:#fff;stroke-miterlimit:10;stroke-width:2px;}</style></defs><title>unternehmen</title><polygon class="cls-1" points="47.08 118.98 53 122.4 58.03 119.49 78.56 107.64 101.84 148.11 178.42 148.11 178.42 146.11 103 146.11 80.3 106.64 106 91.8 106 30.6 53 0 0 30.6 0 91.8 47.08 118.98"/><path class="cls-2" d="M433,530.91l-7.35-12.74H414.29l-5.63-9.76H394l-7.35,12.74,5.63,9.76-5.63,9.76L394,553.41h14.71l5.63-9.76h11.34ZM397.4,514.39h7.81l3.91,6.77-3.91,6.77H397.4l-3.91-6.77Zm7.81,33.05H397.4l-3.91-6.77,3.91-6.77h7.81l3.91,6.77Zm9.16-9.76-3.91-6.77,3.91-6.77h7.81l3.91,6.77-3.91,6.77Z" transform="translate(-356.79 -469.71)"/></svg>