<?xml version="1.0" encoding="utf-8"?>
<!-- Generator: Adobe Illustrator 21.1.0, SVG Export Plug-In . SVG Version: 6.00 Build 0)  -->
<svg version="1.1" id="Layer_1" xmlns="http://www.w3.org/2000/svg" xmlns:xlink="http://www.w3.org/1999/xlink" x="0px" y="0px"
	 viewBox="0 0 48.7 47" style="enable-background:new 0 0 48.7 47;" xml:space="preserve">
<style type="text/css">
	.st0{fill:none;stroke:#FFFFFF;stroke-width:2;stroke-miterlimit:10;}
</style>
<path class="st0" d="M47.5,23.5l-7.4-12.7H28.9L23.2,1H8.5L1.2,13.7l5.6,9.8l-5.6,9.8L8.5,46h14.7l5.6-9.8h11.3L47.5,23.5z M12,7
	h7.8l3.9,6.8l-3.9,6.8H12l-3.9-6.8L12,7z M19.8,40H12l-3.9-6.8l3.9-6.8h7.8l3.9,6.8L19.8,40z M28.9,30.3L25,23.5l3.9-6.8h7.8
	l3.9,6.8l-3.9,6.8H28.9z"/>
</svg>
