<?xml version="1.0" encoding="utf-8"?>
<!-- Generator: Adobe Illustrator 21.1.0, SVG Export Plug-In . SVG Version: 6.00 Build 0)  -->
<svg version="1.1" id="Layer_1" xmlns="http://www.w3.org/2000/svg" xmlns:xlink="http://www.w3.org/1999/xlink" x="0px" y="0px"
	 viewBox="0 0 44.8 45" style="enable-background:new 0 0 44.8 45;" xml:space="preserve">
<style type="text/css">
	.st0{fill:#FFFFFF;}
</style>
<g>
	<path class="st0" d="M28.8,0c-0.2,0-0.5,0.1-0.7,0.3c-0.4,0.4-0.5,1-0.1,1.5c1,1.2,1,3.9-0.1,5.6c-1.4,2.2-1.8,6,0.1,8.1
		c0.2,0.2,0.5,0.4,0.8,0.4c0.2,0,0.5-0.1,0.7-0.3c0.4-0.4,0.5-1,0.1-1.5c-1-1.2-1-3.9,0.1-5.6c1.4-2.2,1.7-6-0.1-8.1
		C29.4,0.1,29.1,0,28.8,0L28.8,0z M33.5,0c-0.2,0-0.5,0.1-0.7,0.3c-0.4,0.4-0.5,1-0.1,1.5c1,1.2,1,3.9-0.1,5.6
		c-1.4,2.2-1.8,6,0.1,8.1c0.2,0.2,0.5,0.4,0.8,0.4c0.2,0,0.5-0.1,0.7-0.3c0.4-0.4,0.5-1,0.1-1.5c-1-1.2-1-3.9,0.1-5.6
		c1.4-2.2,1.7-6-0.1-8.1C34.1,0.1,33.8,0,33.5,0L33.5,0z M23.2,2.6H5.3C2.4,2.6,0,5,0,7.9v31.8C0,42.6,2.4,45,5.3,45h7.5
		c0.6,0,1-0.5,1-1s-0.5-1-1-1H5.3c-1.8,0-3.2-1.4-3.2-3.2V7.9c0-1.8,1.4-3.2,3.2-3.2h17.9c0.6,0,1-0.5,1-1
		C24.2,3.1,23.8,2.6,23.2,2.6L23.2,2.6z M23.2,8H7.2c-0.6,0-1,0.5-1,1v29.2c0,0.6,0.5,1,1,1h3.5c0.6,0,1-0.5,1-1c0-0.6-0.5-1-1-1
		H8.3V10.1h14.9c0.6,0,1-0.5,1-1C24.2,8.5,23.8,8,23.2,8L23.2,8z M19.6,13.6h-7.3c-0.6,0-1,0.5-1,1c0,0.6,0.5,1,1,1h7.3
		c0.6,0,1-0.5,1-1C20.7,14.1,20.2,13.6,19.6,13.6L19.6,13.6z M38.9,19H23.5c-0.6,0-1,0.5-1,1v10.6c0,4.8,3.9,8.8,8.8,8.8
		c4.8,0,8.8-3.9,8.8-8.8v-0.4h3.8c0.6,0,1-0.5,1-1v-6.8c0-0.6-0.5-1-1-1h-3.8v-1.3C39.9,19.5,39.5,19,38.9,19L38.9,19z M31.2,37.3
		c-3.7,0-6.7-3-6.7-6.7v-9.5h13.3h0v9.5C37.8,34.3,34.8,37.3,31.2,37.3L31.2,37.3z M39.9,28.1v-4.7h2.7v4.7H39.9L39.9,28.1z
		 M15.8,19h-3.5c-0.6,0-1,0.5-1,1c0,0.6,0.5,1,1,1h3.5c0.6,0,1-0.5,1-1C16.8,19.5,16.4,19,15.8,19L15.8,19z M17.1,24.4h-4.8
		c-0.6,0-1,0.5-1,1c0,0.6,0.5,1,1,1h4.8c0.6,0,1-0.5,1-1C18.2,24.9,17.7,24.4,17.1,24.4L17.1,24.4z M15.2,37.3H15c-0.6,0-1,0.5-1,1
		c0,0.6,0.5,1,1,1h0.2c0.6,0,1-0.5,1-1C16.2,37.8,15.8,37.3,15.2,37.3L15.2,37.3z M21.6,37.3h-2c-0.6,0-1,0.5-1,1c0,0.6,0.5,1,1,1h2
		c0.6,0,1-0.5,1-1C22.6,37.8,22.1,37.3,21.6,37.3L21.6,37.3z M43.7,42.9H18.6c-0.6,0-1,0.5-1,1s0.5,1,1,1h25.1c0.6,0,1-0.5,1-1
		S44.3,42.9,43.7,42.9L43.7,42.9z"/>
</g>
</svg>
