<?xml version="1.0" encoding="utf-8"?>
<!-- Generator: Adobe Illustrator 21.1.0, SVG Export Plug-In . SVG Version: 6.00 Build 0)  -->
<svg version="1.1" id="Layer_1" xmlns="http://www.w3.org/2000/svg" xmlns:xlink="http://www.w3.org/1999/xlink" x="0px" y="0px"
	 viewBox="0 0 57 46.5" style="enable-background:new 0 0 57 46.5;" xml:space="preserve">
<style type="text/css">
	.st0{fill:none;stroke:#FFFFFF;stroke-width:2;stroke-miterlimit:10;}
</style>
<g>
	<g>
		<path class="st0" d="M15.9,45.5h9.7v-9.9h5.8v9.9h9.7V1H15.9V45.5z M30.3,6.2h5.8v5.8h-5.8V6.2z M30.3,15.6h5.8v5.8h-5.8V15.6z
			 M30.3,25h5.8v5.8h-5.8V25z M20.9,6.2h5.8v5.8h-5.8V6.2z M20.9,15.6h5.8v5.8h-5.8V15.6z M20.9,25h5.8v5.8h-5.8V25z"/>
		<path class="st0" d="M43.4,5v31.4h3.8v9H56V5H43.4z M51.4,32.2h-5.3v-5.3h5.3L51.4,32.2L51.4,32.2z M51.4,23.6h-5.3v-5.3h5.3
			L51.4,23.6L51.4,23.6z M51.4,15.1h-5.3V9.8h5.3L51.4,15.1L51.4,15.1z"/>
		<path class="st0" d="M1,45.5h8.8v-9h3.8V5H1V45.5z M5.6,9.8h5.3v5.3H5.6V9.8z M5.6,18.3h5.3v5.3H5.6V18.3z M5.6,26.8h5.3v5.3H5.6
			V26.8z"/>
	</g>
</g>
</svg>
