<?xml version="1.0" encoding="utf-8"?>
<!-- Generator: Adobe Illustrator 21.1.0, SVG Export Plug-In . SVG Version: 6.00 Build 0)  -->
<svg version="1.1" id="Layer_1" xmlns="http://www.w3.org/2000/svg" xmlns:xlink="http://www.w3.org/1999/xlink" x="0px" y="0px"
	 viewBox="0 0 65.6 47" style="enable-background:new 0 0 65.6 47;" xml:space="preserve">
<style type="text/css">
	.st0{fill:none;stroke:#FFFFFF;stroke-width:2;stroke-miterlimit:10;}
	.st1{fill:#FFFFFF;}
</style>
<g>
	<g>
		<path class="st0" d="M18.8,28.2h-5.5c-0.7,0-1.2,0.5-1.2,1.2v2.3v10.1V44c0,0.7,0.5,1.2,1.2,1.2h5.5c0.7,0,1.2-0.5,1.2-1.2v-2.3
			V31.6v-2.3C20,28.7,19.5,28.2,18.8,28.2z"/>
		<path class="st0" d="M30,21.6h-5.5c-0.7,0-1.2,0.5-1.2,1.2v8.9v3.5V44c0,0.7,0.5,1.2,1.2,1.2H30c0.7,0,1.2-0.5,1.2-1.2v-8.9v-3.5
			v-8.9C31.2,22.1,30.7,21.6,30,21.6z"/>
		<path class="st0" d="M42.3,25.1v-9.8h3.8c0.7,0,1.1-0.8,0.8-1.4L39.1,1.4c-0.4-0.6-1.2-0.6-1.5,0l-7.8,12.5
			c-0.4,0.6,0.1,1.4,0.8,1.4h3.8V44c0,0.7,0.5,1.2,1.2,1.2h5.5c0.7,0,1.2-0.5,1.2-1.2c-2.2-2.5-3.6-5.8-3.6-9.5
			C38.8,30.9,40.1,27.6,42.3,25.1z"/>
		<path class="st0" d="M53.2,23.1c-6.3,0-11.4,5.1-11.4,11.4c0,6.3,5.1,11.4,11.4,11.4c6.3,0,11.4-5.1,11.4-11.4
			S59.5,23.1,53.2,23.1z"/>
		<path class="st0" d="M7.7,36.1H2.2c-0.7,0-1.2,0.5-1.2,1.2v0.2v2.1v2.1v0.8V44c0,0.7,0.5,1.2,1.2,1.2h5.5c0.7,0,1.2-0.5,1.2-1.2
			v-1.5v-0.8v-2.1v-1.8v-0.5C8.9,36.6,8.4,36.1,7.7,36.1z"/>
	</g>
	<g>
		<path class="st1" d="M52.5,43.4v-2.1c-1.3,0-2.7-0.4-3.4-0.9l0.5-1.4c0.8,0.5,2,0.9,3.2,0.9c1.6,0,2.7-0.8,2.7-2
			c0-1.1-0.9-1.8-2.5-2.4c-2.3-0.8-3.7-1.7-3.7-3.5c0-1.7,1.3-3,3.4-3.3v-2.1H54v2c1.4,0,2.3,0.4,2.9,0.7l-0.6,1.3
			c-0.5-0.2-1.4-0.7-2.8-0.7c-1.7,0-2.4,0.9-2.4,1.7c0,1.1,0.8,1.6,2.8,2.3c2.3,0.9,3.5,1.9,3.5,3.7c0,1.6-1.2,3.1-3.6,3.5v2.1H52.5
			z"/>
	</g>
</g>
</svg>
