<?xml version="1.0" encoding="utf-8"?>
<!-- Generator: Adobe Illustrator 21.1.0, SVG Export Plug-In . SVG Version: 6.00 Build 0)  -->
<svg version="1.1" id="Layer_1" xmlns="http://www.w3.org/2000/svg" xmlns:xlink="http://www.w3.org/1999/xlink" x="0px" y="0px"
	 viewBox="0 0 43 45" style="enable-background:new 0 0 43 45;" xml:space="preserve">
<style type="text/css">
	.st0{fill:#FFFFFF;}
</style>
<g>
	<g>
		<g>
			<path class="st0" d="M7.8,45H0V26.6h7.8V45z M1.8,43.2H6V28.5H1.8V43.2z"/>
		</g>
	</g>
	<g>
		<g>
			<path class="st0" d="M26.9,44.2l-11.7-3.3l-6.8,0.8V26.6l11.2-1.7l12.1,3v4.5l-0.9,0.3l-0.3-0.1l-7.1-1.7l-0.1,0.6l7.5,1.8
				l10.8-3l1.3,5L26.9,44.2z M15.4,39.1l11.3,3.2l14.2-7.8l-0.5-1.9l-9.5,2.6l-9.8-2.4l1-4.1l7.8,1.9v-1.3l-10.4-2.6l-9.3,1.4v11.5
				L15.4,39.1z"/>
		</g>
	</g>
	<path class="st0" d="M23,23.7c-6.5,0-11.9-5.3-11.9-11.9S16.5,0,23,0s11.9,5.3,11.9,11.9S29.5,23.7,23,23.7z M23,1.8
		c-5.5,0-10,4.5-10,10s4.5,10,10,10s10-4.5,10-10S28.5,1.8,23,1.8z"/>
	<g>
		<path class="st0" d="M22.3,20.2v-2.1c-1.2,0-2.4-0.4-3.1-0.9l0.5-1.4c0.7,0.5,1.8,0.9,2.9,0.9c1.4,0,2.4-0.8,2.4-2
			c0-1.1-0.8-1.8-2.3-2.4c-2.1-0.8-3.4-1.7-3.4-3.5c0-1.7,1.2-3,3.1-3.3V3.5h1.3v2c1.2,0,2.1,0.4,2.6,0.7l-0.5,1.3
			c-0.4-0.2-1.3-0.7-2.6-0.7c-1.6,0-2.2,0.9-2.2,1.7c0,1.1,0.8,1.6,2.5,2.3c2.1,0.9,3.2,1.9,3.2,3.7c0,1.6-1.1,3.1-3.2,3.5v2.1H22.3
			z"/>
	</g>
</g>
</svg>
