<?xml version="1.0" encoding="utf-8"?>
<!-- Generator: Adobe Illustrator 21.1.0, SVG Export Plug-In . SVG Version: 6.00 Build 0)  -->
<svg version="1.1" id="Layer_1" xmlns="http://www.w3.org/2000/svg" xmlns:xlink="http://www.w3.org/1999/xlink" x="0px" y="0px"
	 viewBox="0 0 46.7 49" style="enable-background:new 0 0 46.7 49;" xml:space="preserve">
<style type="text/css">
	.st0{fill:#FFFFFF;}
</style>
<g>
	<g>
		<path class="st0" d="M41.2,2c2,0,3.6,1.6,3.6,3.6v35.6c0,2-1.6,3.6-3.6,3.6H41v1c0,0.7-0.6,1.3-1.3,1.3h-3.6
			c-0.7,0-1.3-0.6-1.3-1.3v-1H11.5v1c0,0.7-0.6,1.3-1.3,1.3H6.6c-0.7,0-1.3-0.6-1.3-1.3v-1C3.5,44.6,2,43,2,41.2V5.6
			C2,3.6,3.6,2,5.6,2H41.2 M8.7,41h28.9c1.9,0,3.4-1.5,3.4-3.4V8.8c0-1.9-1.5-3.4-3.4-3.4H8.7C6.8,5.5,5.3,7,5.3,8.8v28.8
			C5.3,39.5,6.8,41,8.7,41 M37.6,8c0.5,0,0.8,0.4,0.8,0.8v28.8c0,0.5-0.4,0.8-0.8,0.8H8.7c-0.5,0-0.8-0.4-0.8-0.8V8.8
			C7.9,8.4,8.3,8,8.7,8H37.6 M16,28.8c3,0,5.5-2.5,5.5-5.5c0-3-2.5-5.5-5.5-5.5s-5.5,2.5-5.5,5.5C10.5,26.3,12.9,28.8,16,28.8
			 M34.2,20.5h0.6c0.7,0,1.3-0.6,1.3-1.3c0-0.7-0.6-1.3-1.3-1.3h-0.6c-0.7,0-1.3,0.6-1.3,1.3C32.9,19.9,33.5,20.5,34.2,20.5
			 M29.8,20.5h0.6c0.7,0,1.3-0.6,1.3-1.3c0-0.7-0.6-1.3-1.3-1.3h-0.6c-0.7,0-1.3,0.6-1.3,1.3C28.6,19.9,29.1,20.5,29.8,20.5
			 M25.5,20.5h0.6c0.7,0,1.3-0.6,1.3-1.3c0-0.7-0.6-1.3-1.3-1.3h-0.6c-0.7,0-1.3,0.6-1.3,1.3C24.2,19.9,24.8,20.5,25.5,20.5
			 M34.2,24.6h0.6c0.7,0,1.3-0.6,1.3-1.3c0-0.7-0.6-1.3-1.3-1.3h-0.6c-0.7,0-1.3,0.6-1.3,1.3C32.9,24.1,33.5,24.6,34.2,24.6
			 M29.8,24.6h0.6c0.7,0,1.3-0.6,1.3-1.3c0-0.7-0.6-1.3-1.3-1.3h-0.6c-0.7,0-1.3,0.6-1.3,1.3C28.6,24.1,29.1,24.6,29.8,24.6
			 M25.5,24.6h0.6c0.7,0,1.3-0.6,1.3-1.3c0-0.7-0.6-1.3-1.3-1.3h-0.6c-0.7,0-1.3,0.6-1.3,1.3C24.2,24.1,24.8,24.6,25.5,24.6
			 M34.2,28.8h0.6c0.7,0,1.3-0.6,1.3-1.3c0-0.7-0.6-1.3-1.3-1.3h-0.6c-0.7,0-1.3,0.6-1.3,1.3C32.9,28.3,33.5,28.8,34.2,28.8
			 M29.8,28.8h0.6c0.7,0,1.3-0.6,1.3-1.3c0-0.7-0.6-1.3-1.3-1.3h-0.6c-0.7,0-1.3,0.6-1.3,1.3C28.6,28.3,29.1,28.8,29.8,28.8
			 M25.5,28.8h0.6c0.7,0,1.3-0.6,1.3-1.3c0-0.7-0.6-1.3-1.3-1.3h-0.6c-0.7,0-1.3,0.6-1.3,1.3C24.2,28.3,24.8,28.8,25.5,28.8
			 M16,20.4c1.6,0,2.9,1.3,2.9,2.9s-1.3,2.9-2.9,2.9S13,24.9,13,23.3S14.3,20.4,16,20.4 M41.2,0H5.6C2.5,0,0,2.5,0,5.6v35.6
			c0,2.3,1.4,4.3,3.4,5.1C3.6,47.8,5,49,6.6,49h3.6c1.5,0,2.7-0.9,3.1-2.3H33c0.4,1.3,1.7,2.3,3.1,2.3h3.6c1.6,0,2.9-1.1,3.2-2.6
			c2.2-0.7,3.8-2.8,3.8-5.3V5.6C46.7,2.5,44.2,0,41.2,0L41.2,0z"/>
	</g>
</g>
</svg>
