<svg id="Layer_1" data-name="Layer 1" xmlns="http://www.w3.org/2000/svg" viewBox="0 0 108 124.71"><defs><style>.cls-1,.cls-2{fill:none;stroke-miterlimit:10;stroke-width:2px;}.cls-1{stroke:#fbac3a;}.cls-2{stroke:#a82422;}</style></defs><title>informieren</title><path class="cls-1" d="M274,357a10.61,10.61,0,1,0,10.55,10.66A10.66,10.66,0,0,0,274,357Z" transform="translate(-220 -327.65)"/><path class="cls-1" d="M277.52,378.21h-7a15.76,15.76,0,0,0-7.05,1.73A44.11,44.11,0,0,1,274,384.32a44.11,44.11,0,0,1,10.57-4.38A15.76,15.76,0,0,0,277.52,378.21Z" transform="translate(-220 -327.65)"/><path class="cls-1" d="M300.48,388.76a3.52,3.52,0,0,0-3.52,3.52v7a3.52,3.52,0,0,0,7,0v-7A3.52,3.52,0,0,0,300.48,388.76Z" transform="translate(-220 -327.65)"/><path class="cls-1" d="M247.52,388.76a3.52,3.52,0,0,0-3.52,3.52v7a3.52,3.52,0,0,0,7,0v-7A3.52,3.52,0,0,0,247.52,388.76Z" transform="translate(-220 -327.65)"/><path class="cls-1" d="M249.27,381.73a1.76,1.76,0,0,0-1.76,1.76v1.76a7,7,0,0,1,7,7v7a7,7,0,0,1-7,7v1.76a1.76,1.76,0,0,0,1.76,1.76c9,0,16.22,2.85,23,7.15V387.42C265.46,383.53,258.17,381.73,249.27,381.73Z" transform="translate(-220 -327.65)"/><path class="cls-1" d="M300.48,385.24v-1.76a1.76,1.76,0,0,0-1.76-1.76c-8.89,0-16.19,1.81-23,5.69V417c6.75-4.3,14-7.15,23-7.15a1.76,1.76,0,0,0,1.76-1.76v-1.76a7,7,0,0,1-7-7v-7A7,7,0,0,1,300.48,385.24Z" transform="translate(-220 -327.65)"/><polygon class="cls-2" points="107 92.95 107 31.75 54 1.16 1 31.75 1 92.95 54 123.55 107 92.95"/></svg>