<svg id="Layer_1" data-name="Layer 1" xmlns="http://www.w3.org/2000/svg" viewBox="0 0 108 124.71"><defs><style>.cls-1,.cls-3{fill:none;stroke-width:2px;}.cls-1{stroke:#a82422;}.cls-1,.cls-3,.cls-4{stroke-miterlimit:10;}.cls-2,.cls-4{fill:#fbac3a;}.cls-3,.cls-4{stroke:#fbac3a;}</style></defs><title>investieren</title><polygon class="cls-1" points="107 92.95 107 31.75 54 1.16 1 31.75 1 92.95 54 123.55 107 92.95"/><path class="cls-2" d="M280.68,390.07a1.21,1.21,0,0,1,.32,0,1.93,1.93,0,0,1,.66.38l2.35,6.45,1,2.85,2.21-2.08a2.68,2.68,0,0,1,.93-.55,4.15,4.15,0,0,1,1.15-.23l.37,0,.34-.15a4.79,4.79,0,0,1,1.94-.41,3.53,3.53,0,0,1,1.65.36l.27.15.3.06a2.81,2.81,0,0,0,.59.06,7,7,0,0,0,.93-.08,5.88,5.88,0,0,1,.78-.07c.44,0,.92.07,1.45.94.53,1.14,1.82,4.34,1.81,6.34a9.78,9.78,0,0,1-.18,1.9,5.63,5.63,0,0,0,0,2.45l.47,2.26,1.68-.61.69,1.91-14.92,5.4-.69-1.91,1.55-.56-.73-1.9c-.7-1.82-2.65-4.09-7.95-4.55h-.21s-1.76,0-2.06-.88a.78.78,0,0,1,.11-.69,3.71,3.71,0,0,1,2.56-.63,15,15,0,0,1,1.73.11l2.84.33L284,404a7.29,7.29,0,0,0-.23-.75l-4.18-11.55a1.19,1.19,0,0,1,.71-1.52,1.15,1.15,0,0,1,.39-.07h0m0-2a3.15,3.15,0,0,0-1.07.19,3.19,3.19,0,0,0-1.91,4.08l4.18,11.55a5.22,5.22,0,0,1,.16.54,16.92,16.92,0,0,0-2-.12c-2,0-3.35.45-4.1,1.35a2.8,2.8,0,0,0-.47,2.61c.77,2.13,3.52,2.24,4,2.24h0c4.38.38,5.8,2.09,6.26,3.27l-1.51.55L286.3,420,305,413.23l-2.05-5.67-1.39.5a3.7,3.7,0,0,1,0-1.69,11.75,11.75,0,0,0,.21-2.24c0-2.87-1.93-7.06-2-7.25l0-.06a3.5,3.5,0,0,0-3.2-2,7.62,7.62,0,0,0-1,.09,5.47,5.47,0,0,1-.66.06h-.17a5.45,5.45,0,0,0-2.64-.62,6.79,6.79,0,0,0-2.75.58,6.12,6.12,0,0,0-1.73.35,4.65,4.65,0,0,0-1.62,1l-2.37-6.49a3.24,3.24,0,0,0-2.84-1.69Z" transform="translate(-220 -327.65)"/><path class="cls-3" d="M288,392.47m3.09-.61V364.12A4.13,4.13,0,0,0,287,360H255.14a4.13,4.13,0,0,0-4.12,4.12V412a4.13,4.13,0,0,0,4.12,4.12H282" transform="translate(-220 -327.65)"/><polyline class="cls-3" points="65.27 52.7 53.39 57.31 47.73 64.42 43.55 59.37 40.56 69.2 37.45 67.93 36.57 70.1"/><path class="cls-3" d="M277.72,374.34a7.34,7.34,0,1,0-7.34,7.34A7.34,7.34,0,0,0,277.72,374.34Z" transform="translate(-220 -327.65)"/><path class="cls-4" d="M270,379.27v-1.21a3.59,3.59,0,0,1-1.86-.53l.29-.8a3.29,3.29,0,0,0,1.75.52c.86,0,1.45-.49,1.45-1.18s-.47-1.07-1.38-1.43c-1.24-.48-2-1-2-2.08a2,2,0,0,1,1.84-1.93v-1.21h.76v1.16a3.29,3.29,0,0,1,1.58.42l-.3.79a3,3,0,0,0-1.53-.41c-.94,0-1.29.55-1.29,1s.45.94,1.51,1.37c1.25.5,1.89,1.13,1.89,2.19a2.1,2.1,0,0,1-1.92,2v1.25Z" transform="translate(-220 -327.65)"/></svg>