<svg id="Layer_1" data-name="Layer 1" xmlns="http://www.w3.org/2000/svg" viewBox="0 0 108 124.71"><defs><style>.cls-1,.cls-2{fill:none;stroke-miterlimit:10;stroke-width:2px;}.cls-1{stroke:#a82422;}.cls-2{stroke:#fbac3a;}</style></defs><title>rueckzahlung</title><polygon class="cls-1" points="107 92.95 107 31.75 54 1.16 1 31.75 1 92.95 54 123.55 107 92.95"/><g id="Layer_5" data-name="Layer 5"><path class="cls-2" d="M301.56,406.66a41.52,41.52,0,0,1-13,4.43c-4.23.66-12.2-.94-12.2-2.83,0-.72,7,1.77,11.21.64,3.24-.86,2.78-3.9,1-4.3s-12-4.16-16.41-4.29a75.83,75.83,0,0,0-9.63,1.12c-.85.14-1.38.12-1.43.93-.25,3.76-.73,11.45-1,15.47,0,.08.11,1.23,1.05.42s2.48-1.85,3.81-1.55c2.1.48,20.25,3.8,22.75,3.22,3.58-.83,13.72-6.84,15.67-8.71C306.43,408.33,304.08,405.27,301.56,406.66Z" transform="translate(-220 -327.65)"/><path class="cls-2" d="M256.11,401.29l-9.51-.47a1.71,1.71,0,0,0-1.67,1.23l-1.73,15.7a1,1,0,0,0,1,1.35h10.54a1.4,1.4,0,0,0,1.44-1.28l1.16-15.12A1.3,1.3,0,0,0,256.11,401.29ZM250.51,417a2.63,2.63,0,1,1,2.63-2.63A2.63,2.63,0,0,1,250.51,417Z" transform="translate(-220 -327.65)"/></g><path class="cls-2" d="M281.17,360a19.29,19.29,0,1,0,19.29,19.29A19.29,19.29,0,0,0,281.17,360Zm5.54,26.88a6.23,6.23,0,0,1-3.22,2.06.9.9,0,0,0-.78,1c0,.58,0,1.13,0,1.71a.71.71,0,0,1-.75.8c-.62,0-1.22,0-1.84,0a.74.74,0,0,1-.8-.84c0-.42,0-.84,0-1.24,0-.91,0-1-.93-1.09a12.08,12.08,0,0,1-3.28-.93c-.82-.4-.89-.6-.67-1.44.18-.64.35-1.26.55-1.88s.42-.82,1.09-.47a10.46,10.46,0,0,0,3.64,1.09,4.34,4.34,0,0,0,2.37-.31,1.86,1.86,0,0,0,.44-3.26,5.88,5.88,0,0,0-1.35-.8,30.9,30.9,0,0,1-3.7-1.66,5.26,5.26,0,0,1-3-5,5.52,5.52,0,0,1,4-5.12c1-.35,1-.35,1-1.37v-1c0-.78.16-.91.93-.93h.73c1.66,0,1.66,0,1.66,1.66,0,1.18,0,1.18,1.18,1.35a9.57,9.57,0,0,1,2.57.78.74.74,0,0,1,.49,1c-.2.71-.4,1.44-.62,2.15s-.42.78-1.06.47a8.07,8.07,0,0,0-4.08-.8,3.07,3.07,0,0,0-1.09.22,1.54,1.54,0,0,0-.38,2.75,7.32,7.32,0,0,0,1.77,1,30.19,30.19,0,0,1,3.24,1.46A5.7,5.7,0,0,1,286.71,386.88Z" transform="translate(-220 -327.65)"/></svg>