<svg id="Layer_1" data-name="Layer 1" xmlns="http://www.w3.org/2000/svg" viewBox="0 0 80 92.38"><defs><style>.cls-1{fill:#dcdee2;}.cls-2{fill:#fff;}</style></defs><title>schritte3_grau</title><polygon class="cls-1" points="0 23.09 0 69.28 40 92.38 80 69.28 80 23.09 44.47 2.58 40 0 36.2 2.19 0 23.09"/><path class="cls-2" d="M320.71,367.6a34.11,34.11,0,0,1,11.16-1.75q6.07,0,8.83,2.33t2.76,7.36a8.92,8.92,0,0,1-.85,3.94,8.36,8.36,0,0,1-1.72,2.54,18.78,18.78,0,0,1-2.19,1.67,11.63,11.63,0,0,1,4.18,3q1.28,1.61,1.29,5.22,0,5.74-2.87,8.51t-9.16,2.76a39.51,39.51,0,0,1-5.42-.41,46.62,46.62,0,0,1-4.7-.85l-1.7-.44.38-4.7a60.22,60.22,0,0,0,10.61,1.09q6.56-.05,6.56-5.8a4.83,4.83,0,0,0-1.7-4,7.17,7.17,0,0,0-4.49-1.42h-7.27v-5.09h7.27a5.3,5.3,0,0,0,3.75-1.67,5.42,5.42,0,0,0,1.72-4,4.16,4.16,0,0,0-1.5-3.53,6.65,6.65,0,0,0-4.13-1.15,54.22,54.22,0,0,0-8.92.77l-1.42.27Z" transform="translate(-292.25 -339.72)"/></svg>