<svg id="Layer_1" data-name="Layer 1" xmlns="http://www.w3.org/2000/svg" viewBox="0 0 90 103.92"><defs><style>.cls-1{fill:#a82422;}.cls-2{fill:#fff;}</style></defs><title>schritte2_rott</title><polygon class="cls-1" points="0 25.98 0 77.94 45 103.92 90 77.94 90 25.98 50.03 2.9 45 0 40.73 2.47 0 25.98"/><path class="cls-2" d="M238.42,409H212.08v-5.89l10.11-10.42a65.94,65.94,0,0,0,6.45-7.38,10,10,0,0,0,1.86-5.86q0-3.19-1.8-4.56t-5.89-1.36a46.57,46.57,0,0,0-8.49.87l-1.55.25-.43-5.46a43.28,43.28,0,0,1,12.46-1.8q12.83,0,12.83,11.41a14.89,14.89,0,0,1-2,7.75,39.06,39.06,0,0,1-7,7.94L219.95,403h18.48Z" transform="translate(-180.25 -337.95)"/></svg>