<svg id="Layer_1" data-name="Layer 1" xmlns="http://www.w3.org/2000/svg" viewBox="0 0 79.67 92"><defs><style>.cls-1{fill:#dcdee2;}.cls-2{fill:#fff;}</style></defs><title>schritte2_grau</title><polygon class="cls-1" points="0 23 0 69 39.84 92 79.67 69 79.67 23 44.29 2.57 39.84 0 36.05 2.19 0 23"/><path class="cls-2" d="M222.83,388.48H199.67v-5.18l8.88-9.15a57.87,57.87,0,0,0,5.67-6.48,8.8,8.8,0,0,0,1.63-5.15,4.71,4.71,0,0,0-1.58-4q-1.58-1.2-5.18-1.2a41.06,41.06,0,0,0-7.46.76l-1.36.22-.38-4.79a38,38,0,0,1,10.95-1.58q11.28,0,11.28,10a13.09,13.09,0,0,1-1.72,6.81,34.34,34.34,0,0,1-6.13,7l-7.68,7.46h16.23Z" transform="translate(-171.41 -325.91)"/></svg>