<svg id="Layer_1" data-name="Layer 1" xmlns="http://www.w3.org/2000/svg" viewBox="0 0 90 103.92"><defs><style>.cls-1{fill:#a82422;}.cls-2{fill:#fff;}</style></defs><title>schritte3_rott</title><polygon class="cls-1" points="0 25.98 0 77.94 45 103.92 90 77.94 90 25.98 50.03 2.9 45 0 40.73 2.47 0 25.98"/><path class="cls-2" d="M312.17,369.38a38.67,38.67,0,0,1,12.65-2q6.88,0,10,2.63t3.13,8.34a10.11,10.11,0,0,1-1,4.46,9.49,9.49,0,0,1-2,2.88,21.26,21.26,0,0,1-2.48,1.89,13.17,13.17,0,0,1,4.74,3.38q1.46,1.83,1.46,5.92,0,6.51-3.26,9.64t-10.38,3.13a44.8,44.8,0,0,1-6.14-.46,52.81,52.81,0,0,1-5.33-1l-1.92-.5.43-5.33a68.19,68.19,0,0,0,12,1.24q7.44-.06,7.44-6.57a5.47,5.47,0,0,0-1.92-4.53,8.12,8.12,0,0,0-5.08-1.61h-8.25v-5.77h8.25a6,6,0,0,0,4.25-1.89,6.15,6.15,0,0,0,2-4.59,4.71,4.71,0,0,0-1.71-4,7.54,7.54,0,0,0-4.68-1.3,61.41,61.41,0,0,0-10.11.87l-1.61.31Z" transform="translate(-280.25 -337.95)"/></svg>