<?xml version="1.0" encoding="utf-8"?>
<!-- Generator: Adobe Illustrator 21.1.0, SVG Export Plug-In . SVG Version: 6.00 Build 0)  -->
<svg version="1.1" id="Layer_1" xmlns="http://www.w3.org/2000/svg" xmlns:xlink="http://www.w3.org/1999/xlink" x="0px" y="0px"
	 viewBox="0 0 82 95" style="enable-background:new 0 0 82 95;" xml:space="preserve">
<style type="text/css">
	.st0{fill:#A82422;}
	.st1{fill:none;stroke:#FBAC3A;stroke-width:2;stroke-miterlimit:10;}
</style>
<g>
	<path class="st0" d="M41,2.3l39,22.6v45.2L41,92.7L2,70.1V24.9L41,2.3 M41,0L0,23.8v47.5L41,95l41-23.8V23.8L41,0L41,0z"/>
</g>
<g>
	<path class="st1" d="M62.6,27H19.4c-0.6,0-1,0.5-1,1v27.8c0,2.3,1.8,4.1,4.1,4.1h12l-3.7,11c-0.2,0.5,0.1,1.1,0.7,1.3
		c0.1,0,0.2,0.1,0.3,0.1c0.4,0,0.8-0.3,1-0.7L36.6,60H40v11.3c0,0.6,0.5,1,1,1c0.6,0,1-0.5,1-1V60h3.4l3.9,11.7
		c0.1,0.4,0.5,0.7,1,0.7c0.1,0,0.2,0,0.3-0.1c0.5-0.2,0.8-0.8,0.7-1.3l-3.7-11h12c2.3,0,4.1-1.8,4.1-4.1V28
		C63.7,27.5,63.2,27,62.6,27z"/>
	<path class="st1" d="M25.6,53.8h6.2c0.6,0,1-0.5,1-1v-8.2c0-0.6-0.5-1-1-1h-6.2c-0.6,0-1,0.5-1,1v8.2C24.6,53.3,25,53.8,25.6,53.8z
		"/>
	<path class="st1" d="M37.9,53.8h6.2c0.6,0,1-0.5,1-1V38.3c0-0.6-0.5-1-1-1h-6.2c-0.6,0-1,0.5-1,1v14.4
		C36.9,53.3,37.3,53.8,37.9,53.8z"/>
	<path class="st1" d="M50.2,53.8h6.2c0.6,0,1-0.5,1-1V34.2c0-0.6-0.5-1-1-1h-6.2c-0.6,0-1,0.5-1,1v18.5
		C49.2,53.3,49.6,53.8,50.2,53.8z"/>
</g>
</svg>
