<?xml version="1.0" encoding="utf-8"?>
<!-- Generator: Adobe Illustrator 21.1.0, SVG Export Plug-In . SVG Version: 6.00 Build 0)  -->
<svg version="1.1" id="Layer_1" xmlns="http://www.w3.org/2000/svg" xmlns:xlink="http://www.w3.org/1999/xlink" x="0px" y="0px"
	 viewBox="0 0 82 95" style="enable-background:new 0 0 82 95;" xml:space="preserve">
<style type="text/css">
	.st0{fill:#A82422;}
	.st1{fill:#FBAC3A;}
</style>
<g>
	<path class="st0" d="M41,2.3l39,22.6v45.2L41,92.7L2,70.1V24.9L41,2.3 M41,0L0,23.8v47.5L41,95l41-23.8V23.8L41,0L41,0z"/>
</g>
<g>
	<g>
		<path class="st1" d="M51.3,26.2l4,3.5l1.3,1.2h-1.3l-0.3,1.7c-1.7,10.6-10.5,18.6-21.5,20.1C41.1,49.2,47,42,48.4,33.2l0.4-2.3
			h-2.4h-0.5l1.3-1.2L51.3,26.2 M51.3,23.5l-5.3,4.7l-5.3,4.7h5.9c-1.8,11-11.2,19.8-22.4,19.8c-1.1,0-2.3-0.1-3.4-0.3
			c0,0-0.1,0-0.1,0c-0.5,0-0.7,0.7-0.1,0.9c3.1,1.1,6.4,1.6,9.6,1.6c12.9,0,25-8.5,27.1-22H62l-5.3-4.7L51.3,23.5L51.3,23.5z"/>
	</g>
	<g>
		<path class="st1" d="M48.1,52.6v12.8h-1.5V53.6C47.1,53.3,47.6,53,48.1,52.6 M50.1,48.5c-1.6,1.5-3.5,2.8-5.5,4v15h5.5V48.5
			L50.1,48.5z"/>
	</g>
	<g>
		<path class="st1" d="M39.9,56.7v8.8h-1.5v-8.4C38.9,57,39.4,56.8,39.9,56.7 M41.9,53.8c-1.7,0.7-3.6,1.3-5.5,1.7v12h5.5V53.8
			L41.9,53.8z"/>
	</g>
	<g>
		<path class="st1" d="M56.3,44.1v21.3h-1.5V46.2C55.4,45.6,55.9,44.9,56.3,44.1 M58.3,34.2h-0.1c-0.9,4.2-2.7,8.1-5.3,11.3v21.9
			h5.5V34.2L58.3,34.2z"/>
	</g>
	<g>
		<path class="st1" d="M22,57.2c0.5,0.1,1,0.2,1.5,0.3v7.9H22V57.2 M20,54.6v12.9h5.5V55.9C23.6,55.6,21.8,55.2,20,54.6L20,54.6z"/>
	</g>
	<g>
		<path class="st1" d="M31.7,58.2v7.3h-1.5v-7.3C30.7,58.2,31.2,58.2,31.7,58.2 M33.7,56c-1.2,0.2-2.5,0.2-3.8,0.2
			c-0.6,0-1.1,0-1.7-0.1v11.3h5.5V56L33.7,56z"/>
	</g>
</g>
</svg>
