<?xml version="1.0" encoding="utf-8"?>
<!-- Generator: Adobe Illustrator 21.1.0, SVG Export Plug-In . SVG Version: 6.00 Build 0)  -->
<svg version="1.1" id="Layer_1" xmlns="http://www.w3.org/2000/svg" xmlns:xlink="http://www.w3.org/1999/xlink" x="0px" y="0px"
	 viewBox="0 0 82 95" style="enable-background:new 0 0 82 95;" xml:space="preserve">
<style type="text/css">
	.st0{fill:#A82422;}
	.st1{fill:#FBAC3A;}
</style>
<g>
	<path class="st0" d="M41,2.3l39,22.6v45.2L41,92.7L2,70.1V24.9L41,2.3 M41,0L0,23.8v47.5L41,95l41-23.8V23.8L41,0L41,0z"/>
</g>
<g>
	<g>
		<path class="st1" d="M41,21.3c-9.9,0-17.9,8-17.9,17.9c0,4,1.3,7.9,3.8,11c0.5,0.6,1,1.2,1.6,1.9l0.1,0.1c1.8,2.1,3.9,4.6,4.7,7.5
			c0.1,0.2,0.2,0.9,0.2,3c0,0,0,0,0,0v1.5c0,0.5,0.4,1,1,1h12.9c0.5,0,1-0.4,1-1v-1.5c0-1.9,0.2-2.6,0.2-2.8c0.8-2.9,3-5.5,4.9-7.8
			l0,0c0.6-0.7,1.1-1.3,1.5-1.9c2.5-3.2,3.8-7,3.8-11C58.9,29.3,50.9,21.3,41,21.3L41,21.3z M35.5,63.2v-0.5c0-2.1-0.1-2.9-0.3-3.5
			c-0.9-3.3-3.1-5.9-5.1-8.2L30,50.9c-0.5-0.6-1.1-1.2-1.5-1.8c-2.2-2.8-3.4-6.2-3.4-9.8c0-8.8,7.2-16,16-16c8.8,0,16,7.2,16,16
			c0,3.6-1.2,7-3.4,9.8c-0.4,0.6-1,1.2-1.5,1.8l0,0c-2.1,2.4-4.4,5.2-5.3,8.5c-0.1,0.5-0.3,1.3-0.3,3.3v0.5H35.5L35.5,63.2z"/>
	</g>
	<g>
		<path class="st1" d="M47.4,66.1H34.5c-0.5,0-1,0.4-1,1c0,0.5,0.4,1,1,1h12.9c0.5,0,1-0.4,1-1C48.3,66.5,47.9,66.1,47.4,66.1
			L47.4,66.1z"/>
	</g>
	<g>
		<path class="st1" d="M47.4,68.9H34.5c-0.5,0-1,0.4-1,1c0,0.5,0.4,1,1,1h12.9c0.5,0,1-0.4,1-1C48.3,69.3,47.9,68.9,47.4,68.9
			L47.4,68.9z"/>
	</g>
	<g>
		<path class="st1" d="M44.2,71.8h-6.4c-0.5,0-1,0.4-1,1c0,0.5,0.4,1,1,1h6.4c0.5,0,1-0.4,1-1C45.1,72.2,44.7,71.8,44.2,71.8
			L44.2,71.8z"/>
	</g>
	<g>
		<path class="st1" d="M41,28.6c-0.5,0-1,0.4-1,1v1.3c-3.1,0.4-5.4,2.6-5.4,5.2c0,2.6,2.4,4.9,5.4,5.2V48c-2-0.3-3.5-1.7-3.5-3.3
			c0-0.5-0.4-1-1-1s-1,0.4-1,1c0,2.6,2.4,4.9,5.4,5.2v1.3c0,0.5,0.4,1,1,1c0.5,0,1-0.4,1-1V50c3.1-0.4,5.4-2.6,5.4-5.2
			c0-2.7-2.4-4.9-5.4-5.2v-6.7c2,0.3,3.5,1.7,3.5,3.3c0,0.5,0.4,1,1,1c0.5,0,1-0.4,1-1c0-2.7-2.4-4.9-5.4-5.2v-1.3
			C42,29,41.5,28.6,41,28.6L41,28.6z M40,39.4c-2-0.3-3.5-1.7-3.5-3.3c0-1.6,1.5-3,3.5-3.3V39.4L40,39.4z M42,48v-6.6
			c2,0.3,3.5,1.7,3.5,3.3C45.5,46.3,44,47.7,42,48L42,48z"/>
	</g>
</g>
</svg>
