<?xml version="1.0" encoding="utf-8"?>
<!-- Generator: Adobe Illustrator 21.1.0, SVG Export Plug-In . SVG Version: 6.00 Build 0)  -->
<svg version="1.1" id="Layer_1" xmlns="http://www.w3.org/2000/svg" xmlns:xlink="http://www.w3.org/1999/xlink" x="0px" y="0px"
	 viewBox="0 0 82 95" style="enable-background:new 0 0 82 95;" xml:space="preserve">
<style type="text/css">
	.st0{fill:#A82422;}
	.st1{fill:#FBAC3A;}
</style>
<g>
	<path class="st0" d="M41,2.3l39,22.6v45.2L41,92.7L2,70.1V24.9L41,2.3 M41,0L0,23.8v47.5L41,95l41-23.8V23.8L41,0L41,0z"/>
</g>
<g>
	<g>
		<path class="st1" d="M36,38.7l4.4,6h-0.8h-2v2v18.4h-3.2V46.7v-2h-2h-0.8L36,38.7 M36,36.1c-0.4,0-0.7,0.2-0.9,0.5L29,44.9
			c-0.3,0.3-0.3,0.8-0.1,1.2c0.2,0.4,0.6,0.6,1,0.6h2.5V66c0,0.6,0.5,1.1,1.1,1.1h4.9c0.6,0,1.1-0.5,1.1-1.1V46.7h2.5
			c0.4,0,0.8-0.2,1-0.6c0.2-0.4,0.2-0.8-0.1-1.2l-6.1-8.3C36.7,36.3,36.4,36.1,36,36.1L36,36.1z"/>
	</g>
	<g>
		<path class="st1" d="M23.2,45.5l4.4,6h-0.8h-2v2v11.6h-3.2V53.5v-2h-2h-0.8L23.2,45.5 M23.2,42.9c-0.4,0-0.7,0.2-0.9,0.5l-6.1,8.3
			c-0.3,0.3-0.3,0.8-0.1,1.2c0.2,0.4,0.6,0.6,1,0.6h2.5V66c0,0.6,0.5,1.1,1.1,1.1h4.9c0.6,0,1.1-0.5,1.1-1.1V53.5h2.5
			c0.4,0,0.8-0.2,1-0.6c0.2-0.4,0.2-0.8-0.1-1.2l-6.1-8.3C23.9,43.1,23.6,42.9,23.2,42.9L23.2,42.9z"/>
	</g>
	<g>
		<path class="st1" d="M54.4,25.9c1.7,0,3,1.4,3,3c0,1.7-1.4,3-3,3c-1.7,0-3-1.4-3-3C51.4,27.3,52.7,25.9,54.4,25.9 M54.4,23.9
			c-2.8,0-5,2.3-5,5c0,2.8,2.3,5,5,5c2.8,0,5-2.3,5-5C59.4,26.2,57.2,23.9,54.4,23.9L54.4,23.9z"/>
	</g>
	<g>
		<path class="st1" d="M59.3,38.3L59.3,38.3c1,0.3,1.7,1.3,1.7,2.3V49l-2.9,4.4l-0.3,0.5v0.6v10.6H51V54.5v-0.6l-0.3-0.5L47.8,49
			v-8.3c0-1.1,0.7-2,1.7-2.3c0,0,0,0,0,0l2.5,6.9c0.4,1,1.3,1.7,2.4,1.7c1.1,0,2-0.7,2.4-1.7L59.3,38.3 M50.5,36
			c0,0-1.6,0.5-1.6,0.5c-1.8,0.6-3.1,2.3-3.1,4.2v8.8c0,0.1,0,0.2,0.1,0.2l3.2,4.8v12.2c0,0.2,0.2,0.4,0.4,0.4h9.8
			c0.2,0,0.4-0.2,0.4-0.4V54.5l3.2-4.8c0-0.1,0.1-0.2,0.1-0.2v-8.8c0-1.9-1.2-3.6-3.1-4.2l0,0L58.5,36c0,0-0.1,0-0.1,0
			c-0.2,0-0.4,0.1-0.4,0.3l-3,8.3c-0.1,0.2-0.3,0.4-0.5,0.4c-0.2,0-0.4-0.1-0.5-0.4l-3-8.3C50.8,36.1,50.6,36,50.5,36L50.5,36z"/>
	</g>
	<g>
		<path class="st1" d="M55.2,35.4h-1.5c-0.2,0-0.4,0.1-0.5,0.2c-0.2,0.2-0.2,0.6-0.1,0.8l0.8,1.2l-0.4,3.2l0.8,2
			c0,0.1,0.1,0.2,0.2,0.2c0.1,0,0.2-0.1,0.2-0.2l0.8-2L55,37.7l0.8-1.2c0.2-0.3,0.1-0.6-0.1-0.8h0C55.6,35.5,55.4,35.4,55.2,35.4
			L55.2,35.4z"/>
	</g>
</g>
</svg>
