<?xml version="1.0" encoding="utf-8"?>
<!-- Generator: Adobe Illustrator 21.1.0, SVG Export Plug-In . SVG Version: 6.00 Build 0)  -->
<svg version="1.1" id="Layer_1" xmlns="http://www.w3.org/2000/svg" xmlns:xlink="http://www.w3.org/1999/xlink" x="0px" y="0px"
	 viewBox="0 0 82 95" style="enable-background:new 0 0 82 95;" xml:space="preserve">
<style type="text/css">
	.st0{fill:#A82422;}
	.st1{fill:none;stroke:#FBAC3A;stroke-width:2;stroke-miterlimit:10;}
</style>
<g>
	<path class="st0" d="M41,2.3l39,22.6v45.2L41,92.7L2,70.1V24.9L41,2.3 M41,0L0,23.8v47.5L41,95l41-23.8V23.8L41,0L41,0z"/>
</g>
<g>
	<path class="st1" d="M67.8,39.7l-24-18c-1.2-0.9-2.9-0.9-4.2,0L29.9,29v-1.8c0-1.9-1.6-3.5-3.5-3.5h-3.2c-1.9,0-3.5,1.6-3.5,3.5
		v9.3l-4.4,3.3c-1.2,0.9-1.7,2.5-1.2,3.9c0.5,1.4,1.8,2.4,3.3,2.4h2.3v18.4c0,1.9,1.6,3.5,3.5,3.5h36.9c1.9,0,3.5-1.6,3.5-3.5V46.1
		h2.3c0,0,0,0,0,0c1.9,0,3.5-1.6,3.5-3.5C69.4,41.4,68.8,40.3,67.8,39.7z M50.5,51.7c0,4-2.7,6.4-6.7,6.9v1.6c0,1.2-1,2.1-2.1,2.1
		c-1.2,0-2.1-1-2.1-2.1v-1.8c-2-0.4-4-1.2-5.7-2.4c-0.5-0.4-0.9-1.1-0.9-1.9c0-1.3,1-2.3,2.3-2.3c0.6,0,1.1,0.2,1.4,0.4
		c1.7,1.2,3.6,2,5.7,2c2,0,3.2-0.8,3.2-2.1v-0.1c0-1.2-0.8-1.9-4.5-2.9c-4.5-1.2-7.4-2.4-7.4-6.9v-0.1c0-3.5,2.4-5.9,5.9-6.6v-1.7
		c0-1.2,1-2.1,2.1-2.1s2.1,1,2.1,2.1v1.7c1.8,0.3,3.4,0.9,4.8,1.8c0.5,0.3,1.1,1,1.1,2c0,1.3-1,2.3-2.3,2.3c-0.5,0-0.9-0.1-1.2-0.4
		c-1.6-1-3.2-1.5-4.7-1.5c-1.9,0-2.9,0.9-2.9,2V42c0,1.5,1,2,4.8,2.9C47.9,46.1,50.5,47.7,50.5,51.7L50.5,51.7L50.5,51.7L50.5,51.7z
		"/>
</g>
</svg>
