<?xml version="1.0" encoding="utf-8"?>
<!-- Generator: Adobe Illustrator 21.1.0, SVG Export Plug-In . SVG Version: 6.00 Build 0)  -->
<svg fill="#fff" version="1.1" id="Layer_1" xmlns="http://www.w3.org/2000/svg" xmlns:xlink="http://www.w3.org/1999/xlink" x="0px" y="0px"
	 viewBox="0 0 50 50" style="enable-background:new 0 0 50 50;" xml:space="preserve">
<g>
	<path d="M1.7,39.1c-0.9,0-1.7,0.7-1.7,1.7v7.5C0,49.2,0.7,50,1.7,50s1.8-0.8,1.7-1.7v-7.5C3.4,39.9,2.6,39.1,1.7,39.1z"/>
	<path d="M11,31.7c-0.9,0-1.7,0.7-1.7,1.7v14.9C9.3,49.2,10,50,11,50s1.8-0.8,1.7-1.7V33.4C12.7,32.5,11.9,31.7,11,31.7z"/>
	<path d="M20.3,23.9c-0.9,0-1.7,0.7-1.7,1.7v22.7c0,0.9,0.7,1.7,1.7,1.7s1.8-0.8,1.7-1.8V25.6C22,24.7,21.3,23.9,20.3,23.9z"/>
	<path d="M29.7,28.2c-0.9,0-1.7,0.7-1.7,1.7v18.4c0,0.9,0.7,1.7,1.7,1.7c0.9,0,1.7-0.8,1.7-1.7V29.9C31.4,29,30.7,28.2,29.7,28.2z"
		/>
	<path d="M39,21c-0.9,0-1.7,0.7-1.7,1.7v25.6c0,0.9,0.7,1.7,1.7,1.7c0.9,0,1.7-0.8,1.7-1.7V22.7C40.7,21.8,39.9,21,39,21z"/>
	<path d="M48.3,10.7c-0.9,0-1.7,0.7-1.7,1.7v35.9c0,0.9,0.7,1.7,1.7,1.7c0.9,0,1.7-0.8,1.7-1.8V12.4C50,11.5,49.2,10.7,48.3,10.7z"
		/>
	<path d="M48,0.1l-4.2,1.2c-1.1,0.3-1.3,1.2-0.4,1.9l1,0.8L29.5,21.5l-7.9-6.7c-0.2-0.2-0.5-0.3-0.7-0.3c-0.6-0.2-1.3-0.1-1.8,0.4
		L0.5,33.1c-0.7,0.6-0.7,1.7,0,2.4C0.8,35.8,1.3,36,1.7,36c0.5,0,0.9-0.2,1.3-0.5l17.5-17.1l8.1,6.8c0.3,0.3,0.7,0.4,1.1,0.4
		c0.4,0,0.9-0.2,1.4-0.6c0.1-0.1,0.2-0.3,0.2-0.4L47.2,6.1L48.4,7C49.3,7.7,50,7.4,50,6.2V1.6C50,0.5,49.1-0.2,48,0.1z"/>
</g>
</svg>
