<svg id="Layer_1" data-name="Layer 1" xmlns="http://www.w3.org/2000/svg" viewBox="0 0 453.93 225.16"><defs><style>.cls-1{fill:#231f20;}</style></defs><title>comeeco_logo_stempel</title><polygon class="cls-1" points="288.77 135.33 226.3 169.17 163.83 135.33 163.83 135.23 132.62 135.23 132.62 152.24 185.22 180.73 185.36 225.16 319.99 152.24 319.99 135.23 288.77 135.23 288.77 135.33"/><polygon class="cls-1" points="163.83 67.65 226.3 33.81 288.77 67.65 288.77 67.89 319.99 67.89 319.99 50.75 226.3 0 132.62 50.75 132.62 67.89 163.83 67.89 163.83 67.65"/><path class="cls-1" d="M17.81,126.13Q0,126.13,0,114.31V99.55Q0,87.73,17.81,87.73H49.26a1.92,1.92,0,0,1,1.89.85,6,6,0,0,1,.44,2.62,5.74,5.74,0,0,1-.44,2.55,1.92,1.92,0,0,1-1.89.85H18.06q-5.28,0-7.68,1.43A4.12,4.12,0,0,0,8,99.55v14.75q0,2,2.39,3.5t7.68,1.46h31.4q1.45,0,1.86.85a6.13,6.13,0,0,1,.41,2.55,6.38,6.38,0,0,1-.41,2.58q-.41.88-1.86.88Z"/><path class="cls-1" d="M56.18,99.55q0-11.83,17.81-11.83H87.7q17.8,0,17.81,11.83v14.75q0,11.83-17.81,11.83H74q-17.81,0-17.81-11.83Zm41.34,0A4.13,4.13,0,0,0,95.13,96q-2.39-1.43-7.68-1.43H74.24Q69,94.59,66.56,96a4.12,4.12,0,0,0-2.39,3.53v14.75q0,2,2.39,3.5t7.68,1.46H87.45q5.28,0,7.68-1.46t2.39-3.5Z"/><path class="cls-1" d="M175,126.4a5.92,5.92,0,0,1-3-.61q-1-.61-1-2.58V99.55A4.17,4.17,0,0,0,168.87,96q-2.14-1.43-7.42-1.43h-3.52a21.29,21.29,0,0,0-4.37.37,8.64,8.64,0,0,0-2.8,1.05,4,4,0,0,0-1.51,1.6,4.42,4.42,0,0,0-.44,1.94v23.66q0,2-1,2.58a5.92,5.92,0,0,1-3,.61,5.23,5.23,0,0,1-3.05-.68,3,3,0,0,1-.91-2.52V99.55a4.43,4.43,0,0,0-.44-1.94,4,4,0,0,0-1.51-1.6,8.66,8.66,0,0,0-2.8-1.05,21.29,21.29,0,0,0-4.37-.37h-3.52q-5.28,0-7.42,1.43a4.17,4.17,0,0,0-2.14,3.53v23.66q0,2-1,2.58a5.92,5.92,0,0,1-3,.61,5.74,5.74,0,0,1-3-.61q-1-.61-1-2.58V99.55q0-6,4.25-8.9t11.92-2.92H133q7.93,0,11.77,3.4,3.9-3.4,11.83-3.4h6.23q7.68,0,11.92,2.92t4.25,8.9v23.66q0,2-1,2.58A5.74,5.74,0,0,1,175,126.4Z"/><path class="cls-1" d="M192.39,87.73H217q17.8,0,17.81,11.83v14.75q0,11.83-17.81,11.83H202.21q-17.81,0-17.81-11.83V79.77q0-2,1-2.58a5.74,5.74,0,0,1,3-.61,5.93,5.93,0,0,1,3,.61q1,.61,1,2.58Zm0,6.87v19.71q0,2,2.39,3.5t7.68,1.46h14.28q5.28,0,7.68-1.46t2.39-3.5V99.55A4.13,4.13,0,0,0,224.42,96q-2.39-1.43-7.68-1.43Z"/><path class="cls-1" d="M247.57,110.84v3.47q0,2,2.39,3.5t7.68,1.46h7.24q1.45,0,1.86.85a6.13,6.13,0,0,1,.41,2.55,6.38,6.38,0,0,1-.41,2.58q-.41.88-1.86.88h-7.49q-17.81,0-17.81-11.83V99.55q0-11.83,17.81-11.83h14.53q9.44,0,13.62,2.92t4.18,8.9v7.82a4,4,0,0,1-.69,2.72q-.69.75-3.08.75Zm0-6.73h34.16V99.55a4,4,0,0,0-2.36-3.67q-2.36-1.29-7.71-1.29h-14q-5.28,0-7.68,1.43a4.12,4.12,0,0,0-2.39,3.53Z"/><path class="cls-1" d="M302,110.84v3.47q0,2,2.39,3.5t7.68,1.46h7.24q1.45,0,1.86.85a6.13,6.13,0,0,1,.41,2.55,6.38,6.38,0,0,1-.41,2.58q-.41.88-1.86.88h-7.49q-17.81,0-17.81-11.83V99.55q0-11.83,17.81-11.83h14.53q9.44,0,13.62,2.92t4.18,8.9v7.82a4,4,0,0,1-.69,2.72q-.69.75-3.08.75Zm0-6.73h34.16V99.55a4,4,0,0,0-2.36-3.67q-2.36-1.29-7.71-1.29h-14q-5.28,0-7.68,1.43A4.12,4.12,0,0,0,302,99.55Z"/><path class="cls-1" d="M366.23,126.13q-17.81,0-17.81-11.83V99.55q0-11.83,17.81-11.83h31.46a1.92,1.92,0,0,1,1.89.85,6,6,0,0,1,.44,2.62,5.74,5.74,0,0,1-.44,2.55,1.92,1.92,0,0,1-1.89.85H366.48q-5.28,0-7.68,1.43a4.12,4.12,0,0,0-2.39,3.53v14.75q0,2,2.39,3.5t7.68,1.46h31.4q1.45,0,1.86.85a6.13,6.13,0,0,1,.41,2.55,6.38,6.38,0,0,1-.41,2.58q-.41.88-1.86.88Z"/><path class="cls-1" d="M404.61,99.55q0-11.83,17.81-11.83h13.72q17.8,0,17.81,11.83v14.75q0,11.83-17.81,11.83H422.41q-17.81,0-17.81-11.83Zm41.34,0A4.13,4.13,0,0,0,443.55,96q-2.39-1.43-7.68-1.43H422.67q-5.28,0-7.68,1.43a4.12,4.12,0,0,0-2.39,3.53v14.75q0,2,2.39,3.5t7.68,1.46h13.21q5.28,0,7.68-1.46t2.39-3.5Z"/></svg>