<?xml version="1.0" encoding="utf-8"?>
<!-- Generator: Adobe Illustrator 21.1.0, SVG Export Plug-In . SVG Version: 6.00 Build 0)  -->
<svg fill="#fbb246" version="1.1" id="Layer_1" xmlns="http://www.w3.org/2000/svg" xmlns:xlink="http://www.w3.org/1999/xlink" x="0px" y="0px"
	 viewBox="0 0 43.3 50" style="enable-background:new 0 0 43.3 50;" xml:space="preserve">
<g>
	<path d="M21.7,2.3l19.7,11.3v22.7L21.7,47.7L2,36.3V13.7L21.7,2.3 M21.7,0L0,12.5v25L21.7,50l21.7-12.5v-25L21.7,0L21.7,0z"/>
</g>
<g id="XMLID_446_">
	<path id="XMLID_447_" d="M32.5,12.4c-0.2-0.3-0.6-0.3-2-0.2c-0.9,0-1.7,0-2.1,0s-0.7,0.2-0.9,0.5L26.8,14l-3.1,5.5
		c-1.6,2.8-3.1,5.5-4.6,8.1l4.3,7.8l1.2,2.2c0.1,0.2,0.3,0.2,0.4,0.3c0.6,0.2,1.5,0.1,2.5,0.1c0.8,0,1.9,0,2.1-0.4
		c0.1-0.2,0-0.5-0.1-0.7c0,0-0.7-1.2-1.6-2.9c0.4,0.8,0.8,1.5,1.3,2.3l-4.8-8.7c0.1,0.2,0.2,0.4,0.3,0.6c-0.1-0.2-0.2-0.4-0.3-0.6
		l3.6-6.4c1.3-2.2,2.5-4.4,3.7-6.6l0,0l0,0l0,0l0.8-1.5C32.6,12.6,32.5,12.5,32.5,12.4z"/>
	<path id="XMLID_449_" d="M17.8,18.5c-0.3-0.5-0.6-1.3-1.3-1.3c-1.3,0-2.5,0-3.8,0c-0.2,0-0.4,0.1-0.4,0.3c-0.1,0.4,0.3,1,0.5,1.3
		c0.5,0.8,2,3.3,2,3.6c0,0.2-2.5,4.4-3.6,6.4c-0.2,0.3-0.5,0.8-0.4,1s0.3,0.3,0.5,0.3c1.3,0,2.6,0,3.9,0c0.8-0.1,0.8-0.5,1.5-1.8
		c1.1-2,2.3-4.1,3.3-5.9C19.3,21.2,18.5,19.8,17.8,18.5z"/>
</g>
</svg>
