<?xml version="1.0" encoding="utf-8"?>
<!-- Generator: Adobe Illustrator 21.1.0, SVG Export Plug-In . SVG Version: 6.00 Build 0)  -->
<svg fill="#fff" version="1.1" id="Layer_1" xmlns="http://www.w3.org/2000/svg" xmlns:xlink="http://www.w3.org/1999/xlink" x="0px" y="0px"
	 viewBox="0 0 43.3 50" style="enable-background:new 0 0 43.3 50;" xml:space="preserve">
<g>
	<path d="M21.7,2.3l19.7,11.3v22.7L21.7,47.7L2,36.3V13.7L21.7,2.3 M21.7,0L0,12.5v25L21.7,50l21.7-12.5v-25L21.7,0L21.7,0z"/>
</g>
<g>
	<path d="M34.9,16.8c-1,0.4-2,0.7-3.1,0.9c1.1-0.7,2-1.7,2.4-3c-1,0.6-2.2,1.1-3.4,1.3c-1-1.1-2.4-1.7-4-1.7c-3,0-5.4,2.4-5.4,5.4
		c0,0.4,0,0.8,0.1,1.2c-4.5-0.2-8.5-2.4-11.2-5.7C9.8,16,9.5,17,9.5,18c0,1.9,1,3.5,2.4,4.5c-0.9,0-1.7-0.3-2.5-0.7c0,0,0,0,0,0.1
		c0,2.6,1.9,4.8,4.4,5.3c-0.5,0.1-0.9,0.2-1.4,0.2c-0.3,0-0.7,0-1-0.1c0.7,2.2,2.7,3.7,5.1,3.8c-1.9,1.5-4.2,2.3-6.7,2.3
		c-0.4,0-0.9,0-1.3-0.1c2.4,1.5,5.3,2.4,8.3,2.4c10,0,15.4-8.3,15.4-15.4c0-0.2,0-0.5,0-0.7C33.2,18.8,34.2,17.9,34.9,16.8z"/>
</g>
</svg>
