<?xml version="1.0" encoding="utf-8"?>
<!-- Generator: Adobe Illustrator 21.1.0, SVG Export Plug-In . SVG Version: 6.00 Build 0)  -->
<svg fill="#fbb246" version="1.1" id="Layer_1" xmlns="http://www.w3.org/2000/svg" xmlns:xlink="http://www.w3.org/1999/xlink" x="0px" y="0px"
	 viewBox="0 0 43.3 50" style="enable-background:new 0 0 43.3 50;" xml:space="preserve">
<g>
	<path d="M21.7,2.3l19.7,11.3v22.7L21.7,47.7L2,36.3V13.7L21.7,2.3 M21.7,0L0,12.5v25L21.7,50l21.7-12.5v-25L21.7,0L21.7,0z"/>
</g>
<g>
	<path id="LinkedIn" d="M34.9,26.1v9.5h-5.5v-8.8c0-2.2-0.8-3.7-2.8-3.7c-1.5,0-2.4,1-2.8,2c-0.1,0.4-0.2,0.8-0.2,1.3v9.2h-5.5
		c0,0,0.1-14.9,0-16.5h5.5v2.3c0,0,0,0,0,0.1l0,0v-0.1c0.7-1.1,2-2.7,4.9-2.7C32.2,18.6,34.9,21,34.9,26.1z M12.4,11.1
		c-1.9,0-3.1,1.2-3.1,2.9c0,1.6,1.2,2.9,3,2.9l0,0c1.9,0,3.1-1.3,3.1-2.9C15.4,12.3,14.3,11.1,12.4,11.1z M9.6,35.5h5.5V19H9.6V35.5
		z"/>
</g>
</svg>
