<?xml version="1.0" encoding="utf-8"?>
<!-- Generator: Adobe Illustrator 21.1.0, SVG Export Plug-In . SVG Version: 6.00 Build 0)  -->
<svg fill="#fff" version="1.1" id="Layer_1" xmlns="http://www.w3.org/2000/svg" xmlns:xlink="http://www.w3.org/1999/xlink" x="0px" y="0px"
	 viewBox="0 0 43.3 50" style="enable-background:new 0 0 43.3 50;" xml:space="preserve">
<g>
	<path id="Facebook" d="M18.1,16.8c0,0.7,0,3.7,0,3.7h-2.7V25h2.7v13.4h5.6V25h3.7c0,0,0.3-2.2,0.5-4.5c-0.5,0-4.2,0-4.2,0
		s0-2.6,0-3.1s0.6-1.1,1.2-1.1s1.9,0,3,0c0-0.6,0-2.7,0-4.7c-1.6,0-3.3,0-4.1,0C18,11.6,18.1,16.1,18.1,16.8z"/>
</g>
<g>
	<path d="M21.7,2.3l19.7,11.3v22.7L21.7,47.7L2,36.3V13.7L21.7,2.3 M21.7,0L0,12.5v25L21.7,50l21.7-12.5v-25L21.7,0L21.7,0z"/>
</g>
</svg>
