<svg id="Layer_1" data-name="Layer 1" xmlns="http://www.w3.org/2000/svg" viewBox="0 0 190.31 165"><defs><style>.cls-1{fill:none;stroke:#a82422;stroke-miterlimit:10;stroke-width:2px;}.cls-2,.cls-3{fill:#fbac3a;}.cls-3{font-size:23.68px;font-family:Roboto-Regular, Roboto;}</style></defs><title>investieren</title><polygon class="cls-1" points="1.15 82.5 48.15 164 142.15 164 189.15 82.5 142.15 1 48.15 1 1.15 82.5"/><rect class="cls-2" x="50.15" y="104.86" width="90" height="2"/><rect class="cls-2" x="50.15" y="112.08" width="90" height="2"/><path class="cls-2" d="M317,360.42v43.72H231V360.42h86m2-2H229v47.72h90V358.42Z" transform="translate(-178.85 -307.5)"/><path class="cls-2" d="M231,394.37a13,13,0,0,1,6.37,3.49,12.7,12.7,0,0,1,3.4,6.28H231v-9.76m-2-2.26h0v14h14a14.48,14.48,0,0,0-4.24-9.69,14.75,14.75,0,0,0-9.76-4.33Z" transform="translate(-178.85 -307.5)"/><path class="cls-2" d="M317,394.37v9.76h-9.78a12.61,12.61,0,0,1,3.41-6.28,13,13,0,0,1,6.37-3.49m2-2.26a14.75,14.75,0,0,0-9.76,4.33,14.48,14.48,0,0,0-4.24,9.69h14v-14Z" transform="translate(-178.85 -307.5)"/><path class="cls-2" d="M240.77,360.42a12.69,12.69,0,0,1-3.4,6.28,13,13,0,0,1-6.37,3.49v-9.76h9.77m2.26-2H229v14h0a14.75,14.75,0,0,0,9.76-4.33,14.48,14.48,0,0,0,4.24-9.69Z" transform="translate(-178.85 -307.5)"/><path class="cls-2" d="M317,360.42v9.76a13,13,0,0,1-6.37-3.49,12.7,12.7,0,0,1-3.4-6.28H317m2-2H305a14.48,14.48,0,0,0,4.24,9.69,14.75,14.75,0,0,0,9.76,4.33h0v-14Z" transform="translate(-178.85 -307.5)"/><path class="cls-2" d="M274,367.32c6.72,0,12.19,6.71,12.19,15s-5.47,15-12.19,15-12.19-6.71-12.19-15,5.47-15,12.19-15m0-2c-7.83,0-14.19,7.59-14.19,17s6.35,17,14.19,17,14.19-7.59,14.19-17-6.35-17-14.19-17Z" transform="translate(-178.85 -307.5)"/><text class="cls-3" transform="translate(88.77 83.53)">$</text></svg>