<?xml version="1.0" encoding="utf-8"?>
<!-- Generator: Adobe Illustrator 21.1.0, SVG Export Plug-In . SVG Version: 6.00 Build 0)  -->
<svg fill="#fff" version="1.1" id="Layer_1" xmlns="http://www.w3.org/2000/svg" xmlns:xlink="http://www.w3.org/1999/xlink" x="0px" y="0px"
	 viewBox="0 0 50 50" style="enable-background:new 0 0 50 50;" xml:space="preserve">
<g>
	<g>
		<g>
			<path d="M20.1,33.1h-2.9c-3.7,0-6.5-2.3-6.5-5.3s2.9-5.3,6.5-5.3h7.5c0.9,0,1.7,0.7,1.7,1.7s-0.7,1.7-1.7,1.7h-7.5
				c-1.9,0-3.2,1-3.2,2c0,0.9,1.3,2,3.2,2h2.9c0.9,0,1.7,0.7,1.7,1.7S21.1,33.1,20.1,33.1z"/>
		</g>
		<g>
			<path d="M19.9,40.4h-7.5c-0.9,0-1.7-0.7-1.7-1.7c0-0.9,0.7-1.7,1.7-1.7h7.5c1.9,0,3.2-1,3.2-2c0-0.9-1.3-2-3.2-2h-2.7
				c-0.9,0-1.7-0.7-1.7-1.7s0.7-1.7,1.7-1.7h2.7c3.7,0,6.5,2.3,6.5,5.3C26.5,38,23.6,40.4,19.9,40.4z"/>
		</g>
		<g>
			<path d="M18.6,25.8c-0.9,0-1.7-0.7-1.7-1.7v-2.8c0-0.9,0.7-1.7,1.7-1.7s1.7,0.7,1.7,1.7v2.8C20.3,25.1,19.5,25.8,18.6,25.8z"/>
		</g>
		<g>
			<path d="M18.6,43.2c-0.9,0-1.7-0.7-1.7-1.7v-2.8c0-0.9,0.7-1.7,1.7-1.7s1.7,0.7,1.7,1.7v2.8C20.3,42.4,19.5,43.2,18.6,43.2z"/>
		</g>
		<g>
			<path d="M18.6,49.8C8.3,49.8,0,41.5,0,31.4c0-10.1,8.3-18.3,18.6-18.3s18.6,8.2,18.6,18.3C37.2,41.5,28.8,49.8,18.6,49.8z
				 M18.6,16.4c-8.4,0-15.3,6.7-15.3,15c0,8.3,6.8,15,15.3,15s15.3-6.7,15.3-15C33.9,23.1,27,16.4,18.6,16.4z"/>
		</g>
	</g>
	<g>
		<path d="M42.8,50h-9c-0.9,0-1.7-0.7-1.7-1.7s0.7-1.7,1.7-1.7h7.3V18.9c0-0.9,0.7-1.7,1.7-1.7h1.8l-12-13.1l-6,6.6
			c-0.6,0.7-1.7,0.7-2.4,0.1c-0.7-0.6-0.7-1.7-0.1-2.4l7.2-7.9C31.6,0.2,32.1,0,32.6,0c0,0,0,0,0,0c0.5,0,0.9,0.2,1.2,0.5l15.8,17.2
			c0.4,0.5,0.6,1.2,0.3,1.8c-0.3,0.6-0.9,1-1.5,1h-3.9v27.8C44.5,49.3,43.7,50,42.8,50z"/>
	</g>
</g>
</svg>
