<svg id="Layer_1" data-name="Layer 1" xmlns="http://www.w3.org/2000/svg" viewBox="0 0 190.31 164.81"><defs><style>.cls-1{fill:none;stroke:#a82422;stroke-miterlimit:10;stroke-width:2px;}.cls-2{fill:#fbac3a;}</style></defs><title>konto</title><polygon class="cls-1" points="1.16 82.41 48.16 163.81 142.16 163.81 189.16 82.41 142.16 1 48.16 1 1.16 82.41"/><path class="cls-2" d="M248,371.64l15.9,9.18v3h3.82v.58h-.24v5.92h18.79l-.59.87-2.14,3.2H267.7v1.84h-3.82v3L248,408.36l-15.9-9.18V380.82l15.9-9.18m65.68,18.66-4.42,4.07h-.55l-1.17-2.16-1-1.91h7.18m-7.93,0-1.38,1.54-2.22,2.48-.44-1.72-.35-1.37-1.41-.09-3.64-.23-1.32-.09-.57,1.2-1.11,2.35h-.79l-.93-2.39-.4-1-1.08-.19-2.46-.43-.22,0h18.33M248,369.39l-17.85,10.3V400.3L248,410.61l17.85-10.31v-2.15h3.82v-1.84h14.91l2.72-4.06,2.46.43,1.41,3.63h3.36l1.64-3.46,3.64.23.83,3.23H303l2.84-3.18,1.73,3.18H310l7.87-7.25-.8-.72H269.41v-2h45.4l-2.94-2.64H269.65v-1.84h-3.82V379.7L248,369.39Z" transform="translate(-178.85 -307.59)"/><path class="cls-2" d="M239.27,387a3,3,0,1,1-3,3,3,3,0,0,1,3-3m0-1.95a4.9,4.9,0,1,0,4.9,4.9,4.9,4.9,0,0,0-4.9-4.9Z" transform="translate(-178.85 -307.59)"/></svg>