<?xml version="1.0" encoding="utf-8"?>
<!-- Generator: Adobe Illustrator 21.1.0, SVG Export Plug-In . SVG Version: 6.00 Build 0)  -->
<svg fill="#fff" version="1.1" id="Layer_1" xmlns="http://www.w3.org/2000/svg" xmlns:xlink="http://www.w3.org/1999/xlink" x="0px" y="0px"
	 viewBox="0 0 50 50" style="enable-background:new 0 0 50 50;" xml:space="preserve">
<g>
	<path d="M21.6,25c0,1.8,1.5,3.3,3.3,3.3c1.1,0,2.2-0.7,2.8-1.6c0.1,0,0.2,0,0.3,0h10.9c0.9,0,1.7-0.7,1.7-1.7s-0.8-1.7-1.7-1.7H28
		c-0.1,0-0.2,0-0.3,0c-0.3-0.5-0.7-0.9-1.2-1.2c0-0.1,0-0.2,0.1-0.3v-14c0-1-0.7-1.7-1.7-1.7S23.2,7,23.2,7.9v14c0,0.1,0,0.2,0,0.3
		C22.3,22.8,21.6,23.8,21.6,25z M24.9,26.3c-0.7,0-1.3-0.6-1.3-1.3s0.6-1.3,1.3-1.3c0.7,0,1.3,0.6,1.3,1.3S25.6,26.3,24.9,26.3z"/>
	<path d="M43.6,19l2.7,2c0.9,0.7,1.9,0.4,2.3-0.7l1.3-3.2c0.4-1-0.1-1.6-1.2-1.3L48,16C44.4,6.3,35.2,0,24.9,0C11.1,0,0,11.2,0,25
		s11.1,25,24.9,25c13.7,0,24.8-11.2,24.9-25c0-1-0.7-1.7-1.7-1.7s-1.7,0.8-1.7,1.7c0,11.9-9.8,21.7-21.6,21.7S3.3,36.9,3.3,25
		S13,3.3,24.9,3.3c8.8,0,16.6,5.4,19.9,13.6l-0.9,0.3C42.8,17.5,42.7,18.3,43.6,19z"/>
</g>
</svg>
