<?xml version="1.0" encoding="utf-8"?>
<!-- Generator: Adobe Illustrator 21.1.0, SVG Export Plug-In . SVG Version: 6.00 Build 0)  -->
<svg version="1.1" id="Layer_1" xmlns="http://www.w3.org/2000/svg" xmlns:xlink="http://www.w3.org/1999/xlink" x="0px" y="0px"
	 viewBox="0 0 453.9 225.2" style="enable-background:new 0 0 453.9 225.2;" xml:space="preserve">
<style type="text/css">
	.st0{fill:#FFFFFF;}
</style>
<title>comeeco_logo</title>
<polygon class="st0" points="288.8,135.3 226.3,169.2 163.8,135.3 163.8,135.2 132.6,135.2 132.6,152.2 185.2,180.7 185.4,225.2 
	320,152.2 320,135.2 288.8,135.2 "/>
<polygon class="st0" points="163.8,67.6 226.3,33.8 288.8,67.6 288.8,67.9 320,67.9 320,50.7 226.3,0 132.6,50.7 132.6,67.9 
	163.8,67.9 "/>
<path class="st0" d="M17.8,126.1C5.9,126.1,0,122.2,0,114.3V99.5c0-7.9,5.9-11.8,17.8-11.8h31.4c0.7-0.1,1.5,0.2,1.9,0.8
	c0.3,0.8,0.5,1.7,0.4,2.6c0,0.9-0.1,1.7-0.4,2.6c-0.4,0.6-1.1,1-1.9,0.8H18.1c-3.5,0-6.1,0.5-7.7,1.4C9,96.7,8.1,98,8,99.5v14.8
	c0,1.3,0.8,2.5,2.4,3.5s4.2,1.5,7.7,1.5h31.4c1,0,1.6,0.3,1.9,0.8c0.3,0.8,0.5,1.7,0.4,2.6c0,0.9-0.1,1.8-0.4,2.6
	c-0.3,0.6-0.9,0.9-1.9,0.9L17.8,126.1z"/>
<path class="st0" d="M56.2,99.5c0-7.9,5.9-11.8,17.8-11.8h13.7c11.9,0,17.8,3.9,17.8,11.8v14.8c0,7.9-5.9,11.8-17.8,11.8H74
	c-11.9,0-17.8-3.9-17.8-11.8V99.5z M97.5,99.5c-0.1-1.5-1-2.9-2.4-3.6c-1.6-1-4.2-1.4-7.7-1.4H74.2c-3.5,0-6.1,0.5-7.7,1.4
	c-1.4,0.6-2.3,2-2.4,3.5v14.8c0,1.3,0.8,2.5,2.4,3.5s4.2,1.5,7.7,1.5h13.2c3.5,0,6.1-0.5,7.7-1.5s2.4-2.1,2.4-3.5L97.5,99.5z"/>
<path class="st0" d="M175,126.4c-1,0.1-2.1-0.1-3-0.6c-0.7-0.4-1-1.3-1-2.6V99.5c0-1.5-0.8-2.8-2.1-3.6c-1.4-1-3.9-1.4-7.4-1.4H158
	c-1.5,0-2.9,0.1-4.4,0.4c-1,0.2-1.9,0.5-2.8,1.1c-0.6,0.4-1.2,0.9-1.5,1.6c-0.3,0.6-0.4,1.3-0.4,1.9v23.7c0,1.3-0.3,2.2-1,2.6
	c-0.9,0.5-2,0.7-3,0.6c-1.1,0.1-2.1-0.1-3.1-0.7c-0.7-0.7-1-1.6-0.9-2.5V99.5c0-0.7-0.1-1.3-0.4-1.9c-0.3-0.7-0.9-1.2-1.5-1.6
	c-0.9-0.5-1.8-0.9-2.8-1.1c-1.4-0.3-2.9-0.4-4.4-0.4h-3.5c-3.5,0-6,0.5-7.4,1.4c-1.3,0.7-2.1,2.1-2.1,3.5v23.7c0,1.3-0.3,2.2-1,2.6
	c-0.9,0.5-2,0.7-3,0.6c-1,0.1-2.1-0.1-3-0.6c-0.7-0.4-1-1.3-1-2.6V99.5c0-4,1.4-7,4.2-8.9s6.8-2.9,11.9-2.9h6.2
	c5.3,0,9.2,1.1,11.8,3.4c2.6-2.3,6.5-3.4,11.8-3.4h6.2c5.1,0,9.1,1,11.9,2.9c2.8,1.9,4.2,4.9,4.2,8.9v23.7c0,1.3-0.3,2.2-1,2.6
	C177.1,126.3,176,126.5,175,126.4z"/>
<path class="st0" d="M192.4,87.7H217c11.9,0,17.8,3.9,17.8,11.8v14.8c0,7.9-5.9,11.8-17.8,11.8h-14.8c-11.9,0-17.8-3.9-17.8-11.8
	V79.8c0-1.3,0.3-2.2,1-2.6c0.9-0.5,2-0.7,3-0.6c1-0.1,2.1,0.1,3,0.6c0.7,0.4,1,1.3,1,2.6V87.7z M192.4,94.6v19.7
	c0,1.3,0.8,2.5,2.4,3.5s4.2,1.5,7.7,1.5h14.3c3.5,0,6.1-0.5,7.7-1.5c1.6-1,2.4-2.1,2.4-3.5V99.5c-0.1-1.5-1-2.9-2.4-3.6
	c-1.6-1-4.2-1.4-7.7-1.4L192.4,94.6z"/>
<path class="st0" d="M247.6,110.8v3.5c0,1.3,0.8,2.5,2.4,3.5c1.6,1,4.2,1.5,7.7,1.5h7.2c1,0,1.6,0.3,1.9,0.8
	c0.3,0.8,0.5,1.7,0.4,2.6c0,0.9-0.1,1.8-0.4,2.6c-0.3,0.6-0.9,0.9-1.9,0.9h-7.5c-11.9,0-17.8-3.9-17.8-11.8V99.5
	c0-7.9,5.9-11.8,17.8-11.8h14.5c6.3,0,10.8,1,13.6,2.9c2.8,1.9,4.2,4.9,4.2,8.9v7.8c0.1,1-0.1,1.9-0.7,2.7c-0.5,0.5-1.5,0.7-3.1,0.8
	H247.6z M247.6,104.1h34.2v-4.6c0-1.6-0.9-3-2.4-3.7c-1.6-0.9-4.1-1.3-7.7-1.3h-14c-3.5,0-6.1,0.5-7.7,1.4c-1.4,0.6-2.3,2-2.4,3.5
	L247.6,104.1z"/>
<path class="st0" d="M302,110.8v3.5c0,1.3,0.8,2.5,2.4,3.5s4.2,1.5,7.7,1.5h7.2c1,0,1.6,0.3,1.9,0.8c0.3,0.8,0.5,1.7,0.4,2.6
	c0,0.9-0.1,1.8-0.4,2.6c-0.3,0.6-0.9,0.9-1.9,0.9h-7.5c-11.9,0-17.8-3.9-17.8-11.8V99.5c0-7.9,5.9-11.8,17.8-11.8h14.5
	c6.3,0,10.8,1,13.6,2.9c2.8,1.9,4.2,4.9,4.2,8.9v7.8c0.1,1-0.1,1.9-0.7,2.7c-0.5,0.5-1.5,0.7-3.1,0.8H302z M302,104.1h34.2v-4.6
	c0-1.6-0.9-3-2.4-3.7c-1.6-0.9-4.1-1.3-7.7-1.3h-14c-3.5,0-6.1,0.5-7.7,1.4c-1.4,0.6-2.3,2-2.4,3.5V104.1z"/>
<path class="st0" d="M366.2,126.1c-11.9,0-17.8-3.9-17.8-11.8V99.5c0-7.9,5.9-11.8,17.8-11.8h31.5c0.7-0.1,1.5,0.2,1.9,0.8
	c0.3,0.8,0.5,1.7,0.4,2.6c0,0.9-0.1,1.7-0.4,2.6c-0.4,0.6-1.1,1-1.9,0.8h-31.2c-3.5,0-6.1,0.5-7.7,1.4c-1.4,0.6-2.3,2-2.4,3.5v14.8
	c0,1.3,0.8,2.5,2.4,3.5s4.2,1.5,7.7,1.5h31.4c1,0,1.6,0.3,1.9,0.8c0.3,0.8,0.5,1.7,0.4,2.6c0,0.9-0.1,1.8-0.4,2.6
	c-0.3,0.6-0.9,0.9-1.9,0.9L366.2,126.1z"/>
<path class="st0" d="M404.6,99.5c0-7.9,5.9-11.8,17.8-11.8h13.7c11.9,0,17.8,3.9,17.8,11.8v14.8c0,7.9-5.9,11.8-17.8,11.8h-13.7
	c-11.9,0-17.8-3.9-17.8-11.8V99.5z M445.9,99.5c-0.1-1.5-1-2.9-2.4-3.6c-1.6-1-4.2-1.4-7.7-1.4h-13.2c-3.5,0-6.1,0.5-7.7,1.4
	c-1.4,0.6-2.3,2-2.4,3.5v14.8c0,1.3,0.8,2.5,2.4,3.5s4.2,1.5,7.7,1.5h13.2c3.5,0,6.1-0.5,7.7-1.5s2.4-2.1,2.4-3.5V99.5z"/>
</svg>
