<svg id="Layer_1" data-name="Layer 1" xmlns="http://www.w3.org/2000/svg" viewBox="0 0 190.31 164.81"><defs><style>.cls-1{fill:none;stroke:#a82422;stroke-miterlimit:10;stroke-width:2px;}.cls-2{fill:#fbac3a;}</style></defs><title>portfolio</title><polygon class="cls-1" points="1.16 82.41 48.16 163.81 142.16 163.81 189.16 82.41 142.16 1 48.16 1 1.16 82.41"/><polygon class="cls-2" points="131.34 129.03 57.09 129.03 57.09 35.78 131.34 35.78 131.34 98.88 129.34 98.88 129.34 37.78 59.09 37.78 59.09 127.03 129.34 127.03 129.34 113.04 131.34 113.04 131.34 129.03"/><path class="cls-2" d="M309.19,420.63" transform="translate(-178.85 -307.59)"/><path class="cls-2" d="M309.19,406.47" transform="translate(-178.85 -307.59)"/><path class="cls-2" d="M299.84,355.61v18.86H245.11V355.61h54.74m2-2H243.11v22.86h58.74V353.61Z" transform="translate(-178.85 -307.59)"/><path class="cls-2" d="M270.48,382.19V402.3H245.11V382.19h25.37m2-2H243.11V404.3h29.37V380.19Z" transform="translate(-178.85 -307.59)"/><rect class="cls-2" x="67.93" y="77.11" width="21.91" height="2"/><rect class="cls-2" x="67.93" y="81.36" width="21.91" height="2"/><rect class="cls-2" x="67.93" y="85.7" width="21.91" height="2"/><rect class="cls-2" x="67.93" y="90.03" width="21.91" height="2"/><path class="cls-2" d="M306.33,399.83l-2-.31a14.28,14.28,0,0,0-.39-6.18l1.92-.56a16.28,16.28,0,0,1,.44,7Z" transform="translate(-178.85 -307.59)"/><path class="cls-2" d="M302.09,400.09l-2-.31a14.3,14.3,0,0,0-.39-6.18l1.92-.56a16.3,16.3,0,0,1,.44,7Z" transform="translate(-178.85 -307.59)"/><path class="cls-2" d="M303.45,413.58,302.28,412a14.31,14.31,0,0,0,4.1-4.64l1.75,1a16.32,16.32,0,0,1-4.67,5.29Z" transform="translate(-178.85 -307.59)"/><path class="cls-2" d="M318.15,426.68,317,425.06a14.29,14.29,0,0,0,4.1-4.64l1.75,1a16.27,16.27,0,0,1-4.67,5.29Z" transform="translate(-178.85 -307.59)"/><path class="cls-2" d="M290.36,413.43a16.15,16.15,0,0,1-1-32.26,16.26,16.26,0,0,1,16.52,11.61l-1.92.56a14.24,14.24,0,0,0-14.47-10.17,14.15,14.15,0,0,0,1.76,28.24,14.24,14.24,0,0,0,13.09-11.89l2,.31a16.25,16.25,0,0,1-14.94,13.57Q290.88,413.43,290.36,413.43Z" transform="translate(-178.85 -307.59)"/><path class="cls-2" d="M321.18,429.56l-22.63-20.17,4.88-5.47,22.63,20.17Zm-19.81-20.33L321,426.73l2.22-2.49-19.65-17.51Z" transform="translate(-178.85 -307.59)"/></svg>