<?xml version="1.0" encoding="utf-8"?>
<!-- Generator: Adobe Illustrator 21.1.0, SVG Export Plug-In . SVG Version: 6.00 Build 0)  -->
<svg version="1.1" id="Layer_1" xmlns="http://www.w3.org/2000/svg" xmlns:xlink="http://www.w3.org/1999/xlink" x="0px" y="0px"
	 viewBox="0 0 306 353.3" style="enable-background:new 0 0 306 353.3;" xml:space="preserve">
<style type="text/css">
	.st0{fill:none;stroke:#A81F03;stroke-width:2;stroke-miterlimit:10;}
	.st1{fill:none;stroke:#FFAD38;stroke-width:2;stroke-miterlimit:10;}
</style>
<title>transparent</title>
<polygon class="st0" points="1,88.9 1,264.4 153,352.2 305,264.4 305,88.9 153,1.2 "/>
<ellipse transform="matrix(0.7071 -0.7071 0.7071 0.7071 -6.5826 121.2607)" class="st1" cx="143.1" cy="68.6" rx="16.9" ry="16.9"/>
<path class="st1" d="M154.6,61.6"/>
<path class="st1" d="M132.5,74.1c-1.6-3.6-1.6-7.8,0.1-11.4"/>
<path class="st1" d="M133.6,78.1"/>
<path class="st1" d="M157.5,88.5"/>
<path class="st1" d="M159.7,79.6l19,19c1.5,1.5,1.5,4,0,5.5l0,0c-1.5,1.5-4,1.5-5.5,0l-19-19"/>
<path class="st1" d="M163,83"/>
</svg>
